<svg width="51" height="51" viewBox="0 0 51 51" fill="none" xmlns="http://www.w3.org/2000/svg">
<g id="fi_732220" clip-path="url(#clip0_9667_1787)">
<path id="Vector" d="M48.9131 42.6886H27.0381C26.1756 42.6886 25.4756 41.9886 25.4756 41.1261C25.4756 40.2636 25.4756 10.7386 25.4756 9.8761C25.4756 9.0136 26.1756 8.3136 27.0381 8.3136H48.9131C49.7756 8.3136 50.4756 9.0136 50.4756 9.8761V41.1261C50.4756 41.9886 49.7756 42.6886 48.9131 42.6886Z" fill="#ECEFF1"/>
<g id="Group">
<path id="Vector_2" d="M33.2881 17.6886H27.0381C26.1756 17.6886 25.4756 16.9886 25.4756 16.1261C25.4756 15.2636 26.1756 14.5636 27.0381 14.5636H33.2881C34.1506 14.5636 34.8506 15.2636 34.8506 16.1261C34.8506 16.9886 34.1506 17.6886 33.2881 17.6886Z" fill="#388E3C"/>
<path id="Vector_3" d="M33.2881 23.9386H27.0381C26.1756 23.9386 25.4756 23.2386 25.4756 22.3761C25.4756 21.5136 26.1756 20.8136 27.0381 20.8136H33.2881C34.1506 20.8136 34.8506 21.5136 34.8506 22.3761C34.8506 23.2386 34.1506 23.9386 33.2881 23.9386Z" fill="#388E3C"/>
<path id="Vector_4" d="M33.2881 30.1886H27.0381C26.1756 30.1886 25.4756 29.4886 25.4756 28.6261C25.4756 27.7636 26.1756 27.0636 27.0381 27.0636H33.2881C34.1506 27.0636 34.8506 27.7636 34.8506 28.6261C34.8506 29.4886 34.1506 30.1886 33.2881 30.1886Z" fill="#388E3C"/>
<path id="Vector_5" d="M33.2881 36.4386H27.0381C26.1756 36.4386 25.4756 35.7386 25.4756 34.8761C25.4756 34.0136 26.1756 33.3136 27.0381 33.3136H33.2881C34.1506 33.3136 34.8506 34.0136 34.8506 34.8761C34.8506 35.7386 34.1506 36.4386 33.2881 36.4386Z" fill="#388E3C"/>
<path id="Vector_6" d="M42.6631 17.6886H39.5381C38.6756 17.6886 37.9756 16.9886 37.9756 16.1261C37.9756 15.2636 38.6756 14.5636 39.5381 14.5636H42.6631C43.5256 14.5636 44.2256 15.2636 44.2256 16.1261C44.2256 16.9886 43.5256 17.6886 42.6631 17.6886Z" fill="#388E3C"/>
<path id="Vector_7" d="M42.6631 23.9386H39.5381C38.6756 23.9386 37.9756 23.2386 37.9756 22.3761C37.9756 21.5136 38.6756 20.8136 39.5381 20.8136H42.6631C43.5256 20.8136 44.2256 21.5136 44.2256 22.3761C44.2256 23.2386 43.5256 23.9386 42.6631 23.9386Z" fill="#388E3C"/>
<path id="Vector_8" d="M42.6631 30.1886H39.5381C38.6756 30.1886 37.9756 29.4886 37.9756 28.6261C37.9756 27.7636 38.6756 27.0636 39.5381 27.0636H42.6631C43.5256 27.0636 44.2256 27.7636 44.2256 28.6261C44.2256 29.4886 43.5256 30.1886 42.6631 30.1886Z" fill="#388E3C"/>
<path id="Vector_9" d="M42.6631 36.4386H39.5381C38.6756 36.4386 37.9756 35.7386 37.9756 34.8761C37.9756 34.0136 38.6756 33.3136 39.5381 33.3136H42.6631C43.5256 33.3136 44.2256 34.0136 44.2256 34.8761C44.2256 35.7386 43.5256 36.4386 42.6631 36.4386Z" fill="#388E3C"/>
</g>
<path id="Vector_10" d="M28.035 2.42294C27.6787 2.12607 27.2006 1.99794 26.7506 2.09169L1.75059 6.77919C1.00996 6.91669 0.475586 7.56044 0.475586 8.31357V42.6886C0.475586 43.4386 1.00996 44.0854 1.75059 44.2229L26.7506 48.9104C26.8443 48.9292 26.9412 48.9386 27.0381 48.9386C27.4006 48.9386 27.7537 48.8136 28.035 48.5792C28.3943 48.2823 28.6006 47.8386 28.6006 47.3761V3.62607C28.6006 3.16044 28.3943 2.71982 28.035 2.42294Z" fill="#2E7D32"/>
<path id="Vector_11" d="M21.9627 30.7229L17.0221 25.076L22.019 18.651C22.5502 17.9698 22.4252 16.9885 21.7471 16.4573C21.069 15.926 20.0877 16.051 19.5534 16.7292L14.9252 22.6792L11.0252 18.2229C10.4534 17.5667 9.46586 17.5073 8.82211 18.076C8.17211 18.6448 8.10649 19.6323 8.67524 20.2792L12.9721 25.1917L8.61586 30.7917C8.08461 31.4729 8.20961 32.4542 8.88774 32.9854C9.17524 33.2073 9.51586 33.3135 9.85024 33.3135C10.3159 33.3135 10.7752 33.1073 11.0846 32.7104L15.069 27.5854L19.6127 32.776C19.9221 33.1323 20.3534 33.3135 20.7877 33.3135C21.1534 33.3135 21.519 33.1854 21.8159 32.926C22.4659 32.3573 22.5315 31.3698 21.9627 30.7229Z" fill="#FAFAFA"/>
</g>
<defs>
<clipPath id="clip0_9667_1787">
<rect width="50" height="50" fill="white" transform="translate(0.475586 0.5)"/>
</clipPath>
</defs>
</svg>
