<svg width="24" height="24" viewBox="0 0 24 24" fill="none" xmlns="http://www.w3.org/2000/svg">
<g clip-path="url(#clip0_9208_3018)">
<path d="M23.9896 6.69852L22.0603 2.85627C21.8029 2.3436 21.2783 2.02002 20.7046 2.02002H3.2953C2.72164 2.02002 2.19702 2.34364 1.93958 2.85627L0.0102539 6.69852L1.68763 7.41993H22.3123L23.9896 6.69852Z" fill="#FA6931"/>
<path d="M22.0603 2.85627C21.8029 2.3436 21.2783 2.02002 20.7046 2.02002H19.009C19.5827 2.02002 20.1073 2.34364 20.3648 2.85627L22.2941 6.69852H23.9896L22.0603 2.85627Z" fill="#FC5327"/>
<path d="M21.9915 22.7788H1.38272V7.77473H21.9915V22.7788Z" fill="#EEDFDA"/>
<path d="M20.3062 7.77466H21.9915V22.7787H20.3062V7.77466Z" fill="#DED0CB"/>
<path d="M15.3657 22.7787H20.3075V11.6272C20.3075 11.4727 20.1822 11.3474 20.0277 11.3474H15.6455C15.491 11.3474 15.3658 11.4727 15.3658 11.6272V22.7787H15.3657Z" fill="#557981"/>
<path d="M2.92603 22.7787H13.748V11.6272C13.748 11.4727 13.6228 11.3474 13.4683 11.3474H3.20578C3.05128 11.3474 2.92603 11.4727 2.92603 11.6272V22.7787Z" fill="#97E4F9"/>
<path d="M2.92603 22.7787H13.748V11.6272C13.748 11.4727 13.6228 11.3474 13.4683 11.3474H3.20578C3.05128 11.3474 2.92603 11.4727 2.92603 11.6272V22.7787Z" fill="white"/>
<path d="M21.9914 9.7621C23.0951 9.7621 23.9897 8.86744 23.9897 7.76381V6.69849H19.9932V7.76381C19.9932 8.86739 20.8878 9.7621 21.9914 9.7621Z" fill="#FC5327"/>
<path d="M17.9949 9.7621C19.0985 9.7621 19.9931 8.86744 19.9931 7.76381V6.69849H15.9966V7.76381C15.9966 8.86739 16.8912 9.7621 17.9949 9.7621Z" fill="#ED4322"/>
<path d="M13.9983 9.7621C15.1019 9.7621 15.9966 8.86744 15.9966 7.76381V6.69849H12V7.76381C12 8.86739 12.8947 9.7621 13.9983 9.7621Z" fill="#FC5327"/>
<path d="M10.0017 9.7621C11.1053 9.7621 12 8.86744 12 7.76381V6.69849H8.00342V7.76381C8.00342 8.86739 8.89807 9.7621 10.0017 9.7621Z" fill="#ED4322"/>
<path d="M6.00512 9.7621C7.10874 9.7621 8.0034 8.86744 8.0034 7.76381V6.69849H4.00684V7.76381C4.00684 8.86739 4.90149 9.7621 6.00512 9.7621Z" fill="#FC5327"/>
<path d="M2.00854 9.7621C3.11216 9.7621 4.00682 8.86744 4.00682 7.76381V6.69849H0.0102539V7.76381C0.0102539 8.86739 0.90491 9.7621 2.00854 9.7621Z" fill="#ED4322"/>
<path d="M0.646488 23.9999H23.3534C23.7048 23.9999 23.9896 23.7151 23.9896 23.3637V22.1936C23.9896 21.8422 23.7048 21.5574 23.3534 21.5574H0.646488C0.295113 21.5574 0.0102539 21.8422 0.0102539 22.1936V23.3637C0.0102539 23.7151 0.295113 23.9999 0.646488 23.9999Z" fill="#FA6931"/>
<path d="M13.7478 21.5574H2.92582V18.8771H13.7478V21.5574Z" fill="#EEDFDA"/>
<path d="M10.581 13.8682C10.781 13.8682 10.9431 13.706 10.9431 13.506V11.3474H10.2188V13.506C10.2188 13.706 10.3809 13.8682 10.581 13.8682Z" fill="#EEDFDA"/>
<path d="M11.7527 14.521L10.9228 13.2807C10.7599 13.0373 10.4021 13.0373 10.2393 13.2807L9.40934 14.521C9.33256 14.6358 9.41482 14.7898 9.55287 14.7898H11.6092C11.7472 14.7898 11.8295 14.6358 11.7527 14.521Z" fill="#FBD307"/>
<path d="M6.09292 13.8682C6.29298 13.8682 6.45507 13.706 6.45507 13.506V11.3474H5.73071V13.506C5.73076 13.706 5.89285 13.8682 6.09292 13.8682Z" fill="#EEDFDA"/>
<path d="M7.26443 14.521L6.43451 13.2807C6.27167 13.0373 5.91382 13.0373 5.75098 13.2807L4.92106 14.521C4.84428 14.6358 4.92654 14.7898 5.06459 14.7898H7.1209C7.25895 14.7898 7.34121 14.6358 7.26443 14.521Z" fill="#FBD307"/>
<path d="M16.9339 17.3654C16.7339 17.3654 16.5718 17.2032 16.5718 17.0032V15.7699C16.5718 15.5698 16.7339 15.4077 16.9339 15.4077C17.1339 15.4077 17.2961 15.5699 17.2961 15.7699V17.0032C17.2961 17.2032 17.1339 17.3654 16.9339 17.3654Z" fill="#C9E2E7"/>
<path d="M16.0353 4.03997H7.96452C7.53889 4.03997 7.19385 3.69492 7.19385 3.2693V0.770672C7.19385 0.345047 7.53889 0 7.96452 0H16.0353C16.4609 0 16.8059 0.345047 16.8059 0.770672V3.26925C16.8059 3.69492 16.4609 4.03997 16.0353 4.03997Z" fill="#FBA615"/>
<path d="M16.0353 0H14.3093C14.735 0 15.08 0.345047 15.08 0.770672V4.03997H16.0352C16.4608 4.03997 16.8059 3.69492 16.8059 3.2693V0.770672C16.8059 0.345047 16.4609 0 16.0353 0Z" fill="#FA9801"/>
<path d="M22.2941 6.69849V7.76381C22.2941 8.5643 21.8232 9.25444 21.1436 9.57342C21.4009 9.69422 21.6881 9.7621 21.9913 9.7621C23.095 9.7621 23.9896 8.86744 23.9896 7.76381V6.69849H22.2941Z" fill="#ED4322"/>
</g>
<defs>
<clipPath id="clip0_9208_3018">
<rect width="24" height="24" fill="white"/>
</clipPath>
</defs>
</svg>
