<svg width="24" height="22" viewBox="0 0 24 22" fill="none" xmlns="http://www.w3.org/2000/svg">
<path d="M22.5 18.125V13.1686L20.25 8.375H15V18.125H22.5Z" fill="#C12B35"/>
<path d="M18 14.9915H16.5C16.4005 14.9915 16.3052 14.9519 16.2348 14.8816C16.1645 14.8113 16.125 14.7159 16.125 14.6165C16.125 14.517 16.1645 14.4216 16.2348 14.3513C16.3052 14.281 16.4005 14.2415 16.5 14.2415H18C18.0995 14.2415 18.1948 14.281 18.2652 14.3513C18.3355 14.4216 18.375 14.517 18.375 14.6165C18.375 14.7159 18.3355 14.8113 18.2652 14.8816C18.1948 14.9519 18.0995 14.9915 18 14.9915Z" fill="#97262E"/>
<path d="M1.5 18.125V6.125C1.5 5.92609 1.57902 5.73532 1.71967 5.59467C1.86032 5.45402 2.05109 5.375 2.25 5.375H14.25C14.4489 5.375 14.6397 5.45402 14.7803 5.59467C14.921 5.73532 15 5.92609 15 6.125V18.125H1.5Z" fill="#F4AC1C"/>
<path d="M9.20362 16.25C9.70145 16.25 10.1944 16.1519 10.6543 15.9614C11.1143 15.7709 11.5322 15.4917 11.8842 15.1397C12.2362 14.7877 12.5154 14.3698 12.7059 13.9098C12.8964 13.4499 12.9945 12.9569 12.9945 12.4591V6.827C12.9945 6.63631 12.957 6.44747 12.8841 6.27129C12.8111 6.0951 12.7042 5.93501 12.5693 5.80017C12.4345 5.66533 12.2744 5.55838 12.0982 5.48543C11.922 5.41247 11.7332 5.37495 11.5425 5.375H2.25C2.05109 5.375 1.86032 5.45402 1.71967 5.59467C1.57902 5.73532 1.5 5.92609 1.5 6.125V16.25H9.20362Z" fill="#FFC239"/>
<path d="M19.125 21.125C20.3676 21.125 21.375 20.1176 21.375 18.875C21.375 17.6324 20.3676 16.625 19.125 16.625C17.8824 16.625 16.875 17.6324 16.875 18.875C16.875 20.1176 17.8824 21.125 19.125 21.125Z" fill="#181A1C"/>
<path d="M6 21.125C7.24264 21.125 8.25 20.1176 8.25 18.875C8.25 17.6324 7.24264 16.625 6 16.625C4.75736 16.625 3.75 17.6324 3.75 18.875C3.75 20.1176 4.75736 21.125 6 21.125Z" fill="#181A1C"/>
<path d="M19.125 19.625C19.5392 19.625 19.875 19.2892 19.875 18.875C19.875 18.4608 19.5392 18.125 19.125 18.125C18.7108 18.125 18.375 18.4608 18.375 18.875C18.375 19.2892 18.7108 19.625 19.125 19.625Z" fill="#E0E2E6"/>
<path d="M6 19.625C6.41421 19.625 6.75 19.2892 6.75 18.875C6.75 18.4608 6.41421 18.125 6 18.125C5.58579 18.125 5.25 18.4608 5.25 18.875C5.25 19.2892 5.58579 19.625 6 19.625Z" fill="#E0E2E6"/>
<path d="M22.5 13.25H16.5V8.375H20.25L22.5 13.1686" fill="#76D8FF"/>
<path d="M18 14.75H16.5C16.4005 14.75 16.3052 14.7105 16.2348 14.6402C16.1645 14.5698 16.125 14.4745 16.125 14.375C16.125 14.2755 16.1645 14.1802 16.2348 14.1098C16.3052 14.0395 16.4005 14 16.5 14H18C18.0995 14 18.1948 14.0395 18.2652 14.1098C18.3355 14.1802 18.375 14.2755 18.375 14.375C18.375 14.4745 18.3355 14.5698 18.2652 14.6402C18.1948 14.7105 18.0995 14.75 18 14.75Z" fill="white"/>
<path d="M22.5 14.375H21C20.9005 14.375 20.8052 14.4145 20.7348 14.4848C20.6645 14.5552 20.625 14.6505 20.625 14.75V15.5C20.625 15.5995 20.6645 15.6948 20.7348 15.7652C20.8052 15.8355 20.9005 15.875 21 15.875H22.5V14.375Z" fill="#F4AC1C"/>
<path d="M15.2224 18.125H9.91724C9.50302 18.125 9.16724 18.4608 9.16724 18.875C9.16724 19.2892 9.50302 19.625 9.91724 19.625H15.2224C15.6366 19.625 15.9724 19.2892 15.9724 18.875C15.9724 18.4608 15.6366 18.125 15.2224 18.125Z" fill="#F3F3F5"/>
<path d="M0.75 18.125H3.20587V18.4051C3.20588 18.7284 3.07756 19.0384 2.84911 19.2672C2.62067 19.4959 2.31077 19.6246 1.9875 19.625H0.75V18.125Z" fill="#F3F3F5"/>
<path d="M21.8418 18.125H23.2499V19.625H22.7129C22.4819 19.625 22.2603 19.5332 22.0969 19.3699C21.9336 19.2065 21.8418 18.9849 21.8418 18.7539V18.125Z" fill="#F3F3F5"/>
<path d="M21.1125 14.375H22.5V15.608H21.741C21.6586 15.6082 21.5769 15.5922 21.5007 15.5608C21.4244 15.5295 21.3551 15.4833 21.2967 15.4251C21.2384 15.3669 21.192 15.2978 21.1604 15.2216C21.1288 15.1455 21.1125 15.0638 21.1125 14.9814V14.375Z" fill="#FFC239"/>
<path d="M17.4944 9.23113V10.3438C17.4944 10.6376 17.5523 10.9286 17.6648 11.2001C17.7772 11.4716 17.9421 11.7183 18.1499 11.9261C18.3577 12.1339 18.6044 12.2987 18.876 12.4112C19.1475 12.5236 19.4385 12.5814 19.7324 12.5814H22.2243L20.2499 8.375H18.3505C18.1235 8.375 17.9057 8.4652 17.7451 8.62575C17.5846 8.78631 17.4944 9.00407 17.4944 9.23113Z" fill="#CCF1FF"/>
<path d="M11.9919 5.57275H3C3.05327 6.44955 3.363 7.29136 3.89069 7.9936L6.73831 12.9765C6.8145 13.1101 6.92467 13.2211 7.05766 13.2984C7.19064 13.3756 7.3417 13.4163 7.49549 13.4163C7.64928 13.4163 7.80034 13.3756 7.93332 13.2984C8.06631 13.2211 8.17648 13.1101 8.25267 12.9765C9.31008 11.1263 11.1012 7.99128 11.1017 7.99128C11.6287 7.28958 11.9382 6.44867 11.9919 5.57275Z" fill="#F4AC1C"/>
<path d="M4.15548 6.68716L7.49906 12.5384L10.8426 6.68716C11.3083 6.06622 11.5919 5.32786 11.6616 4.55482C11.7313 3.78177 11.5844 3.00459 11.2373 2.31036C10.8902 1.61612 10.3566 1.03226 9.69634 0.624201C9.03608 0.21614 8.27524 0 7.49906 0C6.72288 0 5.96203 0.21614 5.30178 0.624201C4.64152 1.03226 4.10794 1.61612 3.76082 2.31036C3.4137 3.00459 3.26676 3.78177 3.33647 4.55482C3.40618 5.32786 3.68977 6.06622 4.15548 6.68716Z" fill="#C12B35"/>
<path d="M10.8387 6.68737C11.3488 6.00721 11.6393 5.18766 11.6715 4.33809C11.7037 3.48852 11.4761 2.64934 11.0189 1.93252C10.7028 1.45392 10.2729 1.06117 9.76776 0.789446C9.26262 0.517718 8.69799 0.375488 8.1244 0.375488C7.55081 0.375488 6.98617 0.517718 6.48103 0.789446C5.97589 1.06117 5.54601 1.45392 5.22988 1.93252C4.77223 2.64911 4.54418 3.48831 4.57621 4.33797C4.60824 5.18763 4.89882 6.00727 5.40913 6.68737L7.14129 9.71935C7.24018 9.8925 7.38309 10.0364 7.55554 10.1365C7.72798 10.2366 7.92384 10.2894 8.12324 10.2894C8.32264 10.2894 8.51849 10.2366 8.69094 10.1365C8.86339 10.0364 9.0063 9.8925 9.10518 9.71935L10.8387 6.68737Z" fill="#E63A45"/>
<path d="M7.49576 6.50153C8.77813 6.50153 9.81769 5.46196 9.81769 4.1796C9.81769 2.89723 8.77813 1.85767 7.49576 1.85767C6.21339 1.85767 5.17383 2.89723 5.17383 4.1796C5.17383 5.46196 6.21339 6.50153 7.49576 6.50153Z" fill="#F3F3F5"/>
<path d="M7.49563 1.85767C7.36364 1.85967 7.23205 1.87288 7.10229 1.89714C7.64156 1.98848 8.13106 2.2678 8.48404 2.68559C8.83702 3.10338 9.03067 3.63266 9.03067 4.1796C9.03067 4.72654 8.83702 5.25581 8.48404 5.67361C8.13106 6.0914 7.64156 6.37072 7.10229 6.46205C7.41894 6.5168 7.7435 6.50514 8.0554 6.42782C8.3673 6.3505 8.65972 6.2092 8.91413 6.0129C9.16854 5.81659 9.37938 5.56956 9.53327 5.28747C9.68716 5.00538 9.78075 4.69438 9.8081 4.37421C9.83545 4.05403 9.79597 3.73167 9.69215 3.42756C9.58834 3.12345 9.42246 2.84424 9.20503 2.60763C8.98761 2.37102 8.72338 2.18217 8.42912 2.05307C8.13485 1.92397 7.81697 1.85743 7.49563 1.85767Z" fill="#E0E2E6"/>
</svg>
