<svg width="24" height="24" viewBox="0 0 24 24" fill="none" xmlns="http://www.w3.org/2000/svg">
<path d="M11.2478 6.599C9.79393 5.68016 11.0605 3.44581 12.6124 4.31752C7.08474 0.894748 15.3896 6.04109 6.28005 0.395687C6.19879 0.345332 6.10111 0.328627 6.00774 0.349118C5.91419 0.373086 5.83341 0.43207 5.7821 0.513887L3.27502 4.67567C3.22709 4.75619 3.21262 4.85227 3.2347 4.94333C3.25679 5.03439 3.31368 5.11317 3.39317 5.16278L11.9893 10.5923C12.0285 10.6178 12.0723 10.6353 12.1183 10.6437C12.1643 10.6521 12.2115 10.6513 12.2572 10.6413C12.3028 10.6313 12.3461 10.6123 12.3843 10.5854C12.4226 10.5585 12.4551 10.5243 12.48 10.4848C12.5624 10.3555 13.9098 8.27313 13.9342 8.22481L11.2478 6.599Z" fill="#9DCC6B"/>
<path d="M11.2476 6.5991C9.79412 5.68147 11.0596 3.4461 12.6122 4.31762C7.08332 0.888807 13.9812 5.16884 7.77014 1.32007C7.39842 2.47525 5.74468 2.88741 4.8798 2.01468L3.27526 4.67578C3.22733 4.75629 3.21286 4.85238 3.23495 4.94344C3.25704 5.0345 3.31393 5.11328 3.39342 5.16288L11.9892 10.5924C12.0284 10.6178 12.0722 10.6353 12.1182 10.6437C12.1642 10.652 12.2114 10.6512 12.257 10.6412C12.3027 10.6312 12.3459 10.6122 12.3841 10.5854C12.4224 10.5586 12.455 10.5244 12.4799 10.4849L13.9338 8.2251L11.2476 6.5991Z" fill="#9DCC6B"/>
<path d="M14.1238 7.93492L13.934 8.22504L11.2478 6.59904C10.4032 6.12555 10.4081 4.78594 11.2478 4.31397L11.2514 4.31757C11.4562 4.19197 11.6917 4.12549 11.9319 4.12549C12.1721 4.12549 12.4077 4.19197 12.6124 4.31757L12.6196 4.32117C13.0182 4.57067 12.6459 5.1758 12.2435 4.92998C11.8041 4.63797 11.205 5.0894 11.3409 5.59261C11.3582 5.67387 11.3918 5.75073 11.4399 5.81849C11.4879 5.88624 11.5493 5.94345 11.6203 5.98658L14.0092 7.43355C14.0503 7.45838 14.0859 7.49123 14.114 7.53012C14.1421 7.56901 14.1621 7.61317 14.1728 7.65995C14.1835 7.70672 14.1847 7.75518 14.1762 7.80242C14.1678 7.84966 14.15 7.89472 14.1238 7.93492Z" fill="#84B749"/>
<path d="M19.3206 2.48012L16.0685 0.65349C15.3941 0.270822 14.6141 0.116386 13.8447 0.213208C13.0753 0.310031 12.3579 0.652926 11.7993 1.19077L10.1516 2.79171C10.1878 2.81414 12.6492 4.34035 12.6122 4.31746C11.0617 3.4458 9.793 5.67955 11.2476 6.59894L14.625 8.64401C16.2778 9.63457 17.5065 8.42109 18.8548 7.60555C18.8214 7.52247 18.8043 7.4337 18.8047 7.34414V3.40417C18.8058 3.22004 18.8773 3.0433 19.0044 2.91013C19.1316 2.77697 19.3049 2.69745 19.4888 2.68786C19.4618 2.59943 19.4015 2.52494 19.3206 2.48012Z" fill="#F6CCAF"/>
<path d="M19.489 2.688C19.2404 2.70715 19.0539 2.82115 18.9446 2.98523L16.0685 1.36984C15.3941 0.98717 14.6141 0.832726 13.8447 0.92954C13.0754 1.02635 12.3579 1.36924 11.7993 1.90707L10.5993 3.07107L10.1516 2.79171L11.7993 1.19077C12.3579 0.652926 13.0753 0.310031 13.8447 0.213208C14.6141 0.116386 15.3941 0.270822 16.0685 0.65349L19.3206 2.48012C19.4016 2.52493 19.462 2.59948 19.489 2.688Z" fill="#F3BD98"/>
<path d="M14.5071 21.3121H7.34399C7.249 21.3121 7.1579 21.2743 7.09074 21.2072C7.02357 21.14 6.98584 21.0489 6.98584 20.9539V12.7163C6.98615 12.4314 7.09945 12.1583 7.30088 11.9569C7.50231 11.7555 7.77543 11.6422 8.0603 11.6418H16.656C16.9409 11.6422 17.214 11.7555 17.4154 11.9569C17.6168 12.1583 17.7302 12.4314 17.7305 12.7163V18.4468C17.7305 18.4978 17.7196 18.5483 17.6985 18.5948C17.6774 18.6412 17.6466 18.6827 17.6082 18.7163L14.743 21.2234C14.6777 21.2806 14.5939 21.3121 14.5071 21.3121Z" fill="#FFCC66"/>
<path d="M14.8652 17.0142H13.7907C13.3226 17.0121 13.3221 16.2998 13.7907 16.2979H14.8651C15.3332 16.2998 15.3337 17.0122 14.8652 17.0142Z" fill="#FFBA55"/>
<path d="M13.2307 14.8028L12.3584 14.2067L11.4861 14.8028C11.2611 14.9678 10.9168 14.7861 10.926 14.5071V12C10.926 11.905 10.9637 11.8139 11.0309 11.7467C11.098 11.6796 11.1891 11.6418 11.2841 11.6418H13.433C13.528 11.6419 13.619 11.6797 13.6861 11.7469C13.7531 11.814 13.7908 11.9051 13.7908 12V14.5071C13.7995 14.7858 13.4564 14.9677 13.2307 14.8028Z" fill="#F8834B"/>
<path d="M14.5071 21.3121H7.34399C7.249 21.3121 7.1579 21.2743 7.09074 21.2072C7.02357 21.14 6.98584 21.0489 6.98584 20.9539V12.7163C6.98615 12.4314 7.09945 12.1583 7.30088 11.9569C7.50231 11.7555 7.77543 11.6422 8.0603 11.6418H16.656C16.9409 11.6422 17.214 11.7555 17.4154 11.9569C17.6168 12.1583 17.7302 12.4314 17.7305 12.7163V18.4468C17.7305 18.4978 17.7196 18.5483 17.6985 18.5948C17.6774 18.6412 17.6466 18.6827 17.6082 18.7163L14.743 21.2234C14.6777 21.2806 14.5939 21.3121 14.5071 21.3121Z" fill="#FFCC66"/>
<path d="M14.8652 17.0142H13.7907C13.3226 17.0121 13.3221 16.2998 13.7907 16.2979H14.8651C15.3332 16.2998 15.3337 17.0122 14.8652 17.0142Z" fill="#FFBA55"/>
<path d="M13.2307 14.8028L12.3584 14.2067L11.4861 14.8028C11.2611 14.9678 10.9168 14.7861 10.926 14.5071V12C10.926 11.905 10.9637 11.8139 11.0309 11.7467C11.098 11.6796 11.1891 11.6418 11.2841 11.6418H13.433C13.528 11.6419 13.619 11.6797 13.6861 11.7469C13.7531 11.814 13.7908 11.9051 13.7908 12V14.5071C13.7995 14.7858 13.4564 14.9677 13.2307 14.8028Z" fill="#F8834B"/>
<path d="M16.656 11.6418H12.3582V21.3121H14.5071C14.5941 21.3118 14.6781 21.28 14.7435 21.2226L17.6088 18.7153C17.6473 18.6821 17.6782 18.6408 17.6992 18.5944C17.7202 18.548 17.7309 18.4976 17.7305 18.4467V12.7163C17.7297 12.4316 17.6162 12.1588 17.4149 11.9575C17.2136 11.7561 16.9408 11.6427 16.656 11.6418Z" fill="#FFBA55"/>
<path d="M14.8652 17.0142H13.7907C13.3226 17.0121 13.3221 16.2998 13.7907 16.2979H14.8651C15.3332 16.2998 15.3337 17.0122 14.8652 17.0142Z" fill="#FFA92C"/>
<path d="M13.4326 11.6418H12.3582V14.2061L13.2321 14.8043C13.4536 14.9683 13.7991 14.7848 13.7908 14.507V12C13.7905 11.9051 13.7526 11.8141 13.6855 11.747C13.6184 11.6799 13.5275 11.6421 13.4326 11.6418Z" fill="#F66824"/>
<path d="M7.77022 1.31992C7.3985 2.4751 5.74476 2.88726 4.87988 2.01454L5.78242 0.513844C5.80698 0.47299 5.83945 0.437453 5.87792 0.409319C5.9164 0.381185 5.96011 0.361021 6.00649 0.350011C6.05286 0.339 6.10097 0.337365 6.14799 0.345201C6.19501 0.353038 6.23998 0.370187 6.28028 0.395644C6.32422 0.422736 7.72397 1.29098 7.77022 1.31992Z" fill="#6F9A3D"/>
<path d="M5.37408 4.86197C5.37493 5.32288 5.19637 5.76603 4.87621 6.0976C4.52018 5.87514 3.75338 5.39016 3.39343 5.1628C3.31393 5.11321 3.25704 5.03444 3.23495 4.94339C3.21286 4.85233 3.22734 4.75625 3.27528 4.67574L3.79815 3.80902L4.17781 3.17505C4.52733 3.29777 4.83013 3.52596 5.04441 3.82813C5.25869 4.1303 5.37388 4.49154 5.37408 4.86197Z" fill="#6F9A3D"/>
<path d="M13.4792 8.93771L13.0745 9.56448L12.48 10.4849C12.4551 10.5245 12.4226 10.5587 12.3843 10.5856C12.346 10.6124 12.3028 10.6314 12.2572 10.6414C12.2115 10.6514 12.1643 10.6522 12.1183 10.6438C12.0723 10.6354 12.0285 10.6179 11.9893 10.5924C11.6263 10.3631 10.8716 9.8853 10.5137 9.65757C10.8646 8.41747 12.5899 7.99968 13.4792 8.93771Z" fill="#6F9A3D"/>
<path d="M9.13463 6.98588C7.24135 6.92588 7.24181 4.18051 9.13463 4.12061C11.028 4.18079 11.0275 6.92597 9.13463 6.98588Z" fill="#6F9A3D"/>
<path d="M18.6761 17.0787C18.5321 16.861 18.3131 16.7039 18.0608 16.6372C17.8085 16.5705 17.5405 16.5989 17.3078 16.7169C16.7002 17.0132 12.2395 19.1894 11.7563 19.4246C11.8001 19.3496 11.8361 19.2704 11.8638 19.1882C11.919 19.0422 11.9528 18.889 11.9641 18.7333V18.7297C12.0278 17.8086 11.2837 17.0103 10.3667 17.0142H7.96721L7.85621 16.6773C7.78616 16.4627 7.65005 16.2758 7.46736 16.1433C7.28468 16.0108 7.06476 15.9394 6.83907 15.9395H5.19511C5.1002 15.9397 5.00926 15.9776 4.94215 16.0447C4.87504 16.1118 4.83721 16.2027 4.83691 16.2977V21.2832C4.83745 21.3515 4.85721 21.4183 4.89394 21.476C4.93067 21.5336 4.98289 21.5797 5.04461 21.6091L8.95568 23.4106C9.77588 23.778 10.6854 23.8981 11.5729 23.7563C12.4604 23.6145 13.2872 23.2169 13.952 22.6121L18.5078 18.4862C18.7038 18.3133 18.8294 18.0742 18.8604 17.8146C18.8915 17.555 18.8259 17.293 18.6761 17.0787Z" fill="#F6CCAF"/>
<path d="M18.5077 18.4863L13.952 22.6124C13.2871 23.2171 12.4603 23.6147 11.5729 23.7566C10.6854 23.8984 9.77584 23.7783 8.95564 23.4109L5.04461 21.6093C4.98289 21.5799 4.93067 21.5338 4.89394 21.4761C4.85721 21.4185 4.83745 21.3517 4.83691 21.2834V20.5671C4.83745 20.6355 4.85721 20.7023 4.89394 20.76C4.93067 20.8176 4.98288 20.8637 5.04461 20.8931L8.95568 22.6946C9.7759 23.062 10.6855 23.1821 11.5729 23.0402C12.4604 22.8983 13.2872 22.5007 13.952 21.8959L18.5077 17.7699C18.6396 17.6503 18.7404 17.5003 18.8014 17.333C18.8748 17.5324 18.886 17.7493 18.8335 17.9552C18.7811 18.1611 18.6675 18.3463 18.5077 18.4863Z" fill="#F3BD98"/>
<path d="M4.477 22.7446H2.32983C2.23485 22.7446 2.14375 22.7069 2.07658 22.6397C2.00941 22.5726 1.97168 22.4815 1.97168 22.3865V15.5815C1.97168 15.4866 2.00941 15.3955 2.07658 15.3283C2.14375 15.2611 2.23485 15.2234 2.32983 15.2234H4.47686C4.76222 15.2237 5.0358 15.3372 5.23759 15.539C5.43939 15.7407 5.55291 16.0143 5.55326 16.2997V21.6684C5.55291 21.9537 5.4394 22.2272 5.23764 22.429C5.03588 22.6308 4.76234 22.7443 4.477 22.7446Z" fill="#425B72"/>
<path d="M5.55326 21.126V21.6668C5.55293 21.9526 5.43924 22.2266 5.23713 22.4287C5.03503 22.6308 4.76101 22.7444 4.4752 22.7447H2.32983C2.23493 22.7445 2.144 22.7066 2.07689 22.6395C2.00978 22.5724 1.97196 22.4815 1.97168 22.3866V21.126H5.55326Z" fill="#374F68"/>
<path d="M12.616 19.0056C12.599 19.4175 12.4238 19.8071 12.127 20.0932C11.8302 20.3793 11.4345 20.5401 11.0222 20.5421H9.43201C8.96355 20.5406 8.96263 19.8273 9.43201 19.8258H11.0222C11.1683 19.8253 11.3119 19.7883 11.4401 19.7183C11.5684 19.6482 11.6771 19.5473 11.7564 19.4246L12.616 19.0056Z" fill="#E7A273"/>
<path d="M4.1206 20.1608C4.11857 20.6292 3.40633 20.6292 3.4043 20.1608C3.40624 19.6925 4.11862 19.6925 4.1206 20.1608Z" fill="#1F2F42"/>
<path d="M14.8761 5.29525C14.8256 5.3759 14.7453 5.43325 14.6526 5.45473C14.56 5.47622 14.4626 5.46008 14.3818 5.40985L14.1812 5.2881C13.5308 4.88568 11.8916 3.87117 11.2622 3.47937C11.4686 3.35401 11.7058 3.28831 11.9473 3.28957C12.1888 3.29083 12.4253 3.35901 12.6304 3.48653L14.7579 4.80099C14.8389 4.85102 14.8968 4.9311 14.919 5.02372C14.9411 5.11635 14.9257 5.21397 14.8761 5.29525Z" fill="#E7A273"/>
<path d="M21.6702 8.4185H19.5213C19.2364 8.41819 18.9633 8.30489 18.7618 8.10346C18.5604 7.90203 18.4471 7.62891 18.4468 7.34403V3.40342C18.4471 3.11878 18.5603 2.84589 18.7616 2.64463C18.9629 2.44336 19.2358 2.33015 19.5204 2.32983H21.6702C21.7652 2.32983 21.8563 2.36757 21.9235 2.43473C21.9906 2.5019 22.0284 2.593 22.0284 2.68799V8.0603C22.0284 8.10733 22.0191 8.15391 22.0011 8.19737C21.9831 8.24083 21.9567 8.28032 21.9235 8.31358C21.8902 8.34684 21.8507 8.37323 21.8073 8.39123C21.7638 8.40923 21.7172 8.4185 21.6702 8.4185Z" fill="#425B72"/>
<path d="M22.0283 2.68799V3.4043H18.4468C18.4466 3.26314 18.4743 3.12333 18.5282 2.99288C18.5821 2.86244 18.6613 2.74391 18.7611 2.6441C18.8609 2.54429 18.9794 2.46515 19.1099 2.41123C19.2403 2.3573 19.3801 2.32964 19.5213 2.32984H21.6702C21.7651 2.33013 21.856 2.36796 21.9231 2.43506C21.9902 2.50217 22.028 2.59309 22.0283 2.68799Z" fill="#374F68"/>
<path d="M20.5957 6.62766C20.5936 7.09603 19.8814 7.09603 19.8794 6.62766C19.8814 6.15925 20.5938 6.15929 20.5957 6.62766Z" fill="#1F2F42"/>
<path d="M13.9339 8.2251L13.8013 8.43644L4.51099 2.63084L5.78243 0.514131C5.83375 0.432314 5.91452 0.37333 6.00808 0.349362C6.10145 0.328871 6.19913 0.345576 6.28039 0.395931L12.6127 4.31776C11.0601 3.44569 9.79486 5.68119 11.2482 6.59924L13.9339 8.2251Z" fill="#84B749"/>
<path d="M7.77022 1.31996C7.3985 2.47515 5.74476 2.8873 4.87988 2.01458C5.09473 1.65407 5.56231 0.877995 5.78242 0.513887C5.83373 0.43207 5.91451 0.373086 6.00807 0.349118C6.10144 0.328627 6.19912 0.345332 6.28038 0.395687C6.23482 0.368733 7.42254 1.10027 7.77022 1.31996Z" fill="#678C38"/>
<path d="M10.5674 5.55325C10.5792 4.14034 8.6827 3.59356 7.9375 4.77057L10.3603 6.28405C10.4945 6.06383 10.5661 5.81116 10.5674 5.55325Z" fill="#678C38"/>
</svg>
