<svg width="76" height="75" viewBox="0 0 76 75" fill="none" xmlns="http://www.w3.org/2000/svg">
<g clip-path="url(#clip0_9309_1819)">
<path d="M28.0176 40.5506C28.0176 40.7874 28.1117 41.0145 28.2791 41.1819C28.4465 41.3493 28.6736 41.4434 28.9104 41.4434H49.4461C49.6829 41.4434 49.9101 41.3494 50.0775 41.1819C50.2449 41.0145 50.339 40.7874 50.339 40.5506C50.339 40.3138 50.2449 40.0867 50.0775 39.9192C49.9101 39.7518 49.6829 39.6577 49.4461 39.6577H28.9104C28.6736 39.6577 28.4465 39.7518 28.2791 39.9192C28.1117 40.0867 28.0176 40.3138 28.0176 40.5506Z" fill="#F4AC1C"/>
<path d="M28.9104 45.0149H49.4461C49.6829 45.0149 49.9101 44.9208 50.0775 44.7534C50.2449 44.5859 50.339 44.3588 50.339 44.122C50.339 43.8852 50.2449 43.6581 50.0775 43.4907C49.9101 43.3233 49.6829 43.2292 49.4461 43.2292H28.9104C28.6736 43.2292 28.4465 43.3233 28.2791 43.4907C28.1116 43.6581 28.0176 43.8852 28.0176 44.122C28.0176 44.3588 28.1116 44.5859 28.2791 44.7534C28.4465 44.9208 28.6736 45.0149 28.9104 45.0149Z" fill="#EBAF39"/>
<path d="M28.9104 48.5863H49.4461C49.6829 48.5863 49.9101 48.4922 50.0775 48.3248C50.2449 48.1574 50.339 47.9303 50.339 47.6935C50.339 47.4567 50.2449 47.2296 50.0775 47.0621C49.9101 46.8947 49.6829 46.8006 49.4461 46.8006H28.9104C28.6736 46.8006 28.4465 46.8947 28.2791 47.0621C28.1116 47.2296 28.0176 47.4567 28.0176 47.6935C28.0176 47.9303 28.1116 48.1574 28.2791 48.3248C28.4465 48.4922 28.6736 48.5863 28.9104 48.5863Z" fill="#F4AC1C"/>
<path d="M28.9104 52.1577H49.4461C49.6829 52.1577 49.9101 52.0637 50.0775 51.8962C50.2449 51.7288 50.339 51.5017 50.339 51.2649C50.339 51.0281 50.2449 50.801 50.0775 50.6335C49.9101 50.4661 49.6829 50.372 49.4461 50.372H28.9104C28.6736 50.372 28.4465 50.4661 28.2791 50.6335C28.1116 50.801 28.0176 51.0281 28.0176 51.2649C28.0176 51.5017 28.1116 51.7288 28.2791 51.8962C28.4465 52.0637 28.6736 52.1577 28.9104 52.1577Z" fill="#EBAF39"/>
<path d="M28.9104 55.7292H49.4461C49.6829 55.7292 49.9101 55.6351 50.0775 55.4677C50.2449 55.3002 50.339 55.0731 50.339 54.8363C50.339 54.5995 50.2449 54.3724 50.0775 54.205C49.9101 54.0375 49.6829 53.9435 49.4461 53.9435H28.9104C28.6736 53.9435 28.4465 54.0375 28.2791 54.205C28.1116 54.3724 28.0176 54.5995 28.0176 54.8363C28.0176 55.0731 28.1116 55.3002 28.2791 55.4677C28.4465 55.6351 28.6736 55.7292 28.9104 55.7292Z" fill="#F4AC1C"/>
<path d="M28.9482 37.872H49.4464C49.6832 37.872 49.9103 37.778 50.0778 37.6105C50.2452 37.4431 50.3393 37.216 50.3393 36.9792C50.3393 36.7424 50.2452 36.5153 50.0778 36.3478C49.9103 36.1804 49.6832 36.0863 49.4464 36.0863H30.4579L28.9482 37.872Z" fill="#EBAF39"/>
<path d="M31.8145 34.3006H49.4458C49.6826 34.3006 49.9097 34.2065 50.0771 34.0391C50.2446 33.8717 50.3386 33.6446 50.3386 33.4077C50.3386 33.1709 50.2446 32.9438 50.0771 32.7764C49.9097 32.609 49.6826 32.5149 49.4458 32.5149H31.9324C32.099 33.106 32.0574 33.7365 31.8145 34.3006Z" fill="#F4AC1C"/>
<path d="M54.3569 5.2827C54.6217 5.2827 54.8807 5.20415 55.1009 5.05699C55.3212 4.90983 55.4928 4.70066 55.5942 4.45593C55.6956 4.21121 55.7221 3.94193 55.6704 3.68213C55.6187 3.42233 55.4912 3.1837 55.3039 2.99639C55.1166 2.80909 54.8779 2.68154 54.6181 2.62986C54.3584 2.57818 54.0891 2.60471 53.8443 2.70607C53.5996 2.80744 53.3905 2.9791 53.2433 3.19935C53.0961 3.41959 53.0176 3.67853 53.0176 3.94341C53.018 4.29849 53.1592 4.6389 53.4103 4.88998C53.6614 5.14106 54.0018 5.28229 54.3569 5.2827ZM54.3569 3.27377C54.4893 3.27377 54.6188 3.31304 54.7289 3.38662C54.839 3.46021 54.9248 3.56479 54.9755 3.68715C55.0262 3.80951 55.0395 3.94416 55.0136 4.07405C54.9878 4.20395 54.924 4.32327 54.8304 4.41692C54.7367 4.51057 54.6174 4.57435 54.4875 4.60019C54.3576 4.62603 54.223 4.61277 54.1006 4.56208C53.9782 4.5114 53.8737 4.42557 53.8001 4.31545C53.7265 4.20532 53.6872 4.07586 53.6872 3.94341C53.6874 3.76587 53.758 3.59564 53.8835 3.4701C54.0091 3.34455 54.1793 3.27394 54.3569 3.27377Z" fill="#EBAF39"/>
<path d="M15.4427 13.8393C15.2661 13.8393 15.0934 13.8917 14.9466 13.9898C14.7998 14.0879 14.6853 14.2273 14.6178 14.3905C14.5502 14.5536 14.5325 14.7331 14.567 14.9063C14.6014 15.0795 14.6864 15.2386 14.8113 15.3635C14.9362 15.4884 15.0953 15.5734 15.2685 15.6079C15.4417 15.6423 15.6212 15.6246 15.7843 15.557C15.9475 15.4895 16.0869 15.375 16.185 15.2282C16.2832 15.0814 16.3355 14.9087 16.3355 14.7322C16.3352 14.4954 16.2411 14.2685 16.0737 14.1011C15.9063 13.9337 15.6794 13.8396 15.4427 13.8393ZM15.4427 15.1786C15.3544 15.1786 15.2681 15.1524 15.1946 15.1033C15.1212 15.0543 15.064 14.9846 15.0302 14.903C14.9964 14.8214 14.9876 14.7317 15.0048 14.6451C15.022 14.5585 15.0646 14.4789 15.127 14.4165C15.1894 14.354 15.269 14.3115 15.3556 14.2943C15.4422 14.2771 15.5319 14.2859 15.6135 14.3197C15.6951 14.3535 15.7648 14.4107 15.8139 14.4841C15.8629 14.5575 15.8891 14.6439 15.8891 14.7322C15.889 14.8505 15.8419 14.964 15.7582 15.0477C15.6745 15.1314 15.561 15.1785 15.4427 15.1786Z" fill="#EBAF39"/>
<path d="M22.5862 1.86011C22.4096 1.86011 22.237 1.91247 22.0902 2.01058C21.9433 2.10869 21.8289 2.24813 21.7613 2.41128C21.6937 2.57443 21.6761 2.75396 21.7105 2.92715C21.745 3.10035 21.83 3.25944 21.9549 3.38431C22.0797 3.50918 22.2388 3.59421 22.412 3.62867C22.5852 3.66312 22.7647 3.64544 22.9279 3.57786C23.091 3.51028 23.2305 3.39584 23.3286 3.24901C23.4267 3.10218 23.4791 2.92956 23.4791 2.75296C23.4788 2.51625 23.3846 2.2893 23.2173 2.12192C23.0499 1.95453 22.8229 1.86038 22.5862 1.86011ZM22.5862 3.19939C22.4979 3.19939 22.4116 3.17321 22.3382 3.12416C22.2648 3.0751 22.2076 3.00538 22.1738 2.92381C22.14 2.84223 22.1311 2.75247 22.1484 2.66587C22.1656 2.57927 22.2081 2.49973 22.2705 2.43729C22.333 2.37486 22.4125 2.33234 22.4991 2.31511C22.5857 2.29789 22.6755 2.30673 22.7571 2.34052C22.8386 2.37431 22.9084 2.43153 22.9574 2.50494C23.0065 2.57836 23.0326 2.66467 23.0326 2.75296C23.0325 2.87133 22.9855 2.98481 22.9018 3.06851C22.8181 3.1522 22.7046 3.19927 22.5862 3.19939Z" fill="#EBAF39"/>
<path d="M71.3206 19.5684C71.144 19.5684 70.9714 19.6208 70.8245 19.7189C70.6777 19.817 70.5633 19.9564 70.4957 20.1196C70.4281 20.2827 70.4104 20.4623 70.4449 20.6355C70.4793 20.8087 70.5644 20.9678 70.6892 21.0926C70.8141 21.2175 70.9732 21.3025 71.1464 21.337C71.3196 21.3714 71.4991 21.3537 71.6623 21.2862C71.8254 21.2186 71.9649 21.1042 72.063 20.9573C72.1611 20.8105 72.2134 20.6379 72.2134 20.4613C72.2132 20.2246 72.119 19.9976 71.9516 19.8302C71.7843 19.6628 71.5573 19.5687 71.3206 19.5684ZM71.3206 20.9077C71.2323 20.9077 71.146 20.8815 71.0726 20.8325C70.9992 20.7834 70.9419 20.7137 70.9081 20.6321C70.8744 20.5505 70.8655 20.4608 70.8827 20.3742C70.9 20.2876 70.9425 20.208 71.0049 20.1456C71.0674 20.0832 71.1469 20.0407 71.2335 20.0234C71.3201 20.0062 71.4099 20.015 71.4914 20.0488C71.573 20.0826 71.6427 20.1398 71.6918 20.2133C71.7408 20.2867 71.767 20.373 71.767 20.4613C71.7669 20.5796 71.7198 20.6931 71.6361 20.7768C71.5524 20.8605 71.439 20.9076 71.3206 20.9077Z" fill="#EBAF39"/>
<path d="M5.24958 7.51487C5.24958 7.33828 5.19722 7.16565 5.09911 7.01882C5.001 6.87199 4.86155 6.75755 4.69841 6.68997C4.53526 6.6224 4.35573 6.60471 4.18254 6.63917C4.00934 6.67362 3.85025 6.75865 3.72538 6.88352C3.60051 7.00839 3.51547 7.16748 3.48102 7.34068C3.44657 7.51388 3.46425 7.6934 3.53183 7.85655C3.59941 8.0197 3.71385 8.15914 3.86068 8.25725C4.00751 8.35536 4.18013 8.40772 4.35672 8.40772C4.59344 8.40745 4.82039 8.3133 4.98777 8.14591C5.15516 7.97853 5.24931 7.75158 5.24958 7.51487ZM3.9103 7.51487C3.9103 7.42657 3.93648 7.34026 3.98553 7.26684C4.03459 7.19343 4.10431 7.13621 4.18588 7.10242C4.26746 7.06863 4.35722 7.05979 4.44382 7.07702C4.53042 7.09424 4.60996 7.13676 4.6724 7.19919C4.73483 7.26163 4.77735 7.34117 4.79458 7.42777C4.8118 7.51437 4.80296 7.60413 4.76917 7.68571C4.73538 7.76728 4.67816 7.837 4.60475 7.88606C4.53133 7.93511 4.44502 7.9613 4.35672 7.9613C4.23836 7.96118 4.12488 7.9141 4.04118 7.83041C3.95749 7.74671 3.91041 7.63323 3.9103 7.51487Z" fill="#EBAF39"/>
<path d="M39.0661 7.52008L39.7299 6.64686L39.3107 6.40936L38.8844 7.38704H38.8705L38.4375 6.41606L38.0112 6.6607L38.6679 7.51293V7.52722L37.6406 7.39418V7.86918L38.6746 7.73659V7.75043L38.0112 8.60267L38.4089 8.85401L38.8634 7.86918H38.8772L39.2964 8.84686L39.7366 8.59552L39.0661 7.75758V7.74329L40.1205 7.86918V7.39418L39.0661 7.53392V7.52008Z" fill="#F4AC1C"/>
<path d="M6.48909 20.4911L6.1065 20.9817L6.33597 21.1268L6.59757 20.5594H6.60561L6.84668 21.1223L7.10025 20.9777L6.71409 20.4951V20.4871L7.32123 20.5594V20.2857L6.71409 20.3661V20.358L7.09623 19.8554L6.85516 19.7188L6.60963 20.2817H6.60159L6.35248 19.7228L6.1065 19.8634L6.48507 20.3545V20.3625L5.89355 20.2857V20.5594L6.48909 20.483V20.4911Z" fill="#F4AC1C"/>
<path d="M59.2671 14.9763V14.5102L58.2327 14.6473V14.6335L58.8841 13.7772L58.4729 13.5446L58.0551 14.5035H58.0408L57.6162 13.5513L57.1979 13.791L57.8421 14.6268V14.6406L56.835 14.5102V14.9763L57.8488 14.8464V14.8598L57.1979 15.6955L57.5885 15.9424L58.0341 14.9763H58.0475L58.4586 15.9352L58.8903 15.6888L58.2327 14.8665V14.8531L59.2671 14.9763Z" fill="#F4AC1C"/>
<path d="M70.6257 3.75846L71.1873 3.02006L70.8329 2.81873L70.4722 3.64596H70.4601L70.094 2.82453L69.7333 3.03167L70.2891 3.75265V3.76471L69.4199 3.65221V4.05399L70.2949 3.94194V3.95355L69.7333 4.67453L70.0699 4.88748L70.4547 4.05399H70.4659L70.8208 4.88123L71.1931 4.66873L70.6257 3.95935V3.94774L71.5181 4.05399V3.65221L70.6257 3.77051V3.75846Z" fill="#F4AC1C"/>
<path d="M1.23172 66.8897C1.72484 66.8897 2.12458 66.49 2.12458 65.9969C2.12458 65.5037 1.72484 65.104 1.23172 65.104C0.738613 65.104 0.338867 65.5037 0.338867 65.9969C0.338867 66.49 0.738613 66.8897 1.23172 66.8897Z" fill="#EBAF39"/>
<path d="M5.24972 65.1042H3.91044C3.67363 65.1042 3.44653 65.1983 3.27909 65.3657C3.11165 65.5331 3.01758 65.7602 3.01758 65.997C3.01758 66.2338 3.11165 66.4609 3.27909 66.6284C3.44653 66.7958 3.67363 66.8899 3.91044 66.8899H5.24972C5.48652 66.8899 5.71362 66.7958 5.88107 66.6284C6.04851 66.4609 6.14258 66.2338 6.14258 65.997C6.14258 65.7602 6.04851 65.5331 5.88107 65.3657C5.71362 65.1983 5.48652 65.1042 5.24972 65.1042Z" fill="#EBAF39"/>
<path d="M71.7673 65.1042H70.428C70.1912 65.1042 69.9641 65.1983 69.7967 65.3657C69.6292 65.5331 69.5352 65.7602 69.5352 65.997C69.5352 66.2338 69.6292 66.4609 69.7967 66.6284C69.9641 66.7958 70.1912 66.8899 70.428 66.8899H71.7673C72.0041 66.8899 72.2312 66.7958 72.3986 66.6284C72.5661 66.4609 72.6602 66.2338 72.6602 65.997C72.6602 65.7602 72.5661 65.5331 72.3986 65.3657C72.2312 65.1983 72.0041 65.1042 71.7673 65.1042Z" fill="#EBAF39"/>
<path d="M74.4456 66.8897C74.9387 66.8897 75.3384 66.49 75.3384 65.9969C75.3384 65.5037 74.9387 65.104 74.4456 65.104C73.9525 65.104 73.5527 65.5037 73.5527 65.9969C73.5527 66.49 73.9525 66.8897 74.4456 66.8897Z" fill="#EBAF39"/>
<path d="M53.0857 68.6756H49.3769C49.1525 68.6936 48.943 68.7955 48.7903 68.9609C48.6375 69.1264 48.5527 69.3433 48.5527 69.5685C48.5527 69.7936 48.6375 70.0105 48.7903 70.176C48.943 70.3415 49.1525 70.4433 49.3769 70.4613H53.0857C53.3102 70.4433 53.5196 70.3415 53.6724 70.176C53.8251 70.0105 53.9099 69.7936 53.9099 69.5685C53.9099 69.3433 53.8251 69.1264 53.6724 68.9609C53.5196 68.7955 53.3102 68.6936 53.0857 68.6756Z" fill="#F4AC1C"/>
<path d="M26.3006 68.6756H22.5918C22.3673 68.6936 22.1579 68.7955 22.0051 68.9609C21.8524 69.1264 21.7676 69.3433 21.7676 69.5685C21.7676 69.7936 21.8524 70.0105 22.0051 70.176C22.1579 70.3415 22.3673 70.4433 22.5918 70.4613H26.3006C26.525 70.4433 26.7345 70.3415 26.8872 70.176C27.0399 70.0105 27.1247 69.7936 27.1247 69.5685C27.1247 69.3433 27.0399 69.1264 26.8872 68.9609C26.7345 68.7955 26.525 68.6936 26.3006 68.6756Z" fill="#F4AC1C"/>
<path d="M46.7676 68.6756H28.9104C28.6736 68.6756 28.4465 68.7697 28.2791 68.9371C28.1116 69.1046 28.0176 69.3317 28.0176 69.5685C28.0176 69.8053 28.1116 70.0324 28.2791 70.1998C28.4465 70.3672 28.6736 70.4613 28.9104 70.4613H36.0265V71.3542H32.4819C32.2451 71.3542 32.018 71.4482 31.8505 71.6157C31.6831 71.7831 31.589 72.0102 31.589 72.247C31.589 72.4838 31.6831 72.7109 31.8505 72.8784C32.018 73.0458 32.2451 73.1399 32.4819 73.1399H43.6426C43.8794 73.1399 44.1065 73.0458 44.2739 72.8784C44.4414 72.7109 44.5354 72.4838 44.5354 72.247C44.5354 72.0102 44.4414 71.7831 44.2739 71.6157C44.1065 71.4482 43.8794 71.3542 43.6426 71.3542H39.6515V70.4613H46.7676C47.0044 70.4613 47.2315 70.3672 47.3989 70.1998C47.5664 70.0324 47.6604 69.8053 47.6604 69.5685C47.6604 69.3317 47.5664 69.1046 47.3989 68.9371C47.2315 68.7697 47.0044 68.6756 46.7676 68.6756Z" fill="#F4AC1C"/>
<path d="M67.6249 65.1041H58.3539C58.6603 64.5589 58.8211 63.9439 58.8207 63.3184V26.1755C58.8206 25.9653 58.7464 25.7618 58.6112 25.6009L45.5427 10.0653C45.459 9.96558 45.3544 9.88543 45.2364 9.83045C45.1184 9.77547 44.9897 9.74699 44.8596 9.74701H22.9845C22.0539 9.76449 21.1682 10.1503 20.5216 10.8197C19.875 11.4892 19.5202 12.3878 19.535 13.3184V32.3466H17.7493C17.5791 32.3466 17.4124 32.3953 17.2689 32.4869C17.1255 32.5785 17.0112 32.7092 16.9395 32.8636C16.8678 33.018 16.8418 33.1896 16.8645 33.3583C16.8871 33.527 16.9576 33.6857 17.0674 33.8158L22.871 40.6805C22.9548 40.7797 23.0592 40.8594 23.177 40.914C23.2948 40.9687 23.423 40.997 23.5528 40.997C23.6827 40.997 23.811 40.9687 23.9287 40.914C24.0465 40.8594 24.1509 40.7797 24.2347 40.6805L30.0383 33.8158C30.1481 33.6857 30.2185 33.527 30.2412 33.3583C30.2639 33.1896 30.2378 33.018 30.1662 32.8636C30.0945 32.7092 29.9802 32.5785 29.8368 32.4869C29.6933 32.3953 29.5266 32.3466 29.3564 32.3466H27.6113V26.7632C27.6113 26.5264 27.5172 26.2993 27.3497 26.1318C27.1823 25.9644 26.9552 25.8703 26.7184 25.8703C26.4816 25.8703 26.2545 25.9644 26.087 26.1318C25.9196 26.2993 25.8255 26.5264 25.8255 26.7632V33.2394C25.8256 33.4762 25.9196 33.7033 26.0871 33.8708C26.2545 34.0382 26.4816 34.1323 26.7184 34.1323H27.4325L23.5528 38.7213L19.6732 34.1323H20.4278C20.6646 34.1323 20.8917 34.0382 21.0592 33.8708C21.2266 33.7033 21.3207 33.4762 21.3207 33.2394V13.3185C21.3056 12.8613 21.4722 12.4168 21.784 12.0821C22.0958 11.7475 22.5275 11.5499 22.9846 11.5327H43.6421V23.2772C43.6421 25.2425 45.6404 26.7113 47.427 26.7113H57.035V63.3185C57.05 63.7756 56.8834 64.2202 56.5716 64.5548C56.2597 64.8895 55.828 65.087 55.3709 65.1042H22.9846C22.5275 65.087 22.0958 64.8894 21.784 64.5548C21.4722 64.2201 21.3056 63.7756 21.3207 63.3185V41.613L19.535 39.5008V63.3184C19.5346 63.9439 19.6954 64.5589 20.0017 65.1042H8.05226C7.92524 65.0876 7.79614 65.0983 7.67359 65.1355C7.55103 65.1728 7.43784 65.2358 7.34157 65.3203C7.2453 65.4048 7.16817 65.5089 7.11533 65.6256C7.06249 65.7423 7.03516 65.8689 7.03516 65.997C7.03516 66.1251 7.06249 66.2517 7.11533 66.3684C7.16817 66.4851 7.2453 66.5892 7.34157 66.6737C7.43784 66.7582 7.55103 66.8212 7.67359 66.8585C7.79614 66.8958 7.92524 66.9065 8.05226 66.8899H67.6249C67.7519 66.9065 67.881 66.8958 68.0035 66.8585C68.1261 66.8212 68.2393 66.7582 68.3356 66.6737C68.4318 66.5892 68.509 66.4851 68.5618 66.3684C68.6146 66.2517 68.642 66.1251 68.642 65.997C68.642 65.8689 68.6146 65.7423 68.5618 65.6256C68.509 65.5089 68.4318 65.4048 68.3356 65.3203C68.2393 65.2358 68.1261 65.1728 68.0035 65.1355C67.881 65.0983 67.7519 65.0876 67.6249 65.1041ZM47.427 24.9256C46.5457 24.9256 45.4279 24.1496 45.4279 23.2772V13.0625L55.5464 24.9256H47.427Z" fill="#EBAF39"/>
</g>
<defs>
<clipPath id="clip0_9309_1819">
<rect width="75" height="75" fill="white" transform="translate(0.338867)"/>
</clipPath>
</defs>
</svg>
