<svg width="75" height="75" viewBox="0 0 75 75" fill="none" xmlns="http://www.w3.org/2000/svg">
<g clip-path="url(#clip0_9309_2097)">
<path d="M37.5 0C16.79 0 0 16.7812 0 37.5C0 58.2188 16.79 75 37.5 75C58.21 75 75 58.2026 75 37.5C75 16.7974 58.21 0 37.5 0Z" fill="#EA6262"/>
<path d="M37.4839 62.9297C36.2783 62.9297 35.0998 62.5722 34.0974 61.9024C33.095 61.2325 32.3138 60.2805 31.8525 59.1667C31.3912 58.0528 31.2706 56.8272 31.5059 55.6448C31.7412 54.4624 32.3219 53.3764 33.1744 52.524C34.027 51.6716 35.1132 51.0912 36.2957 50.8562C37.4781 50.6212 38.7037 50.7421 39.8174 51.2037C40.9312 51.6652 41.883 52.4467 42.5526 53.4492C43.2222 54.4518 43.5794 55.6304 43.5791 56.8359C43.5787 58.4522 42.9364 60.0022 41.7933 61.145C40.6503 62.2877 39.1002 62.9297 37.4839 62.9297ZM43.3916 41.9385C43.2894 42.88 42.8639 43.757 42.1875 44.4199C41.5029 45.0889 40.6115 45.5057 39.6592 45.6021H39.6313C39.0342 45.6704 38.4336 45.7046 37.8325 45.7046C37.112 45.7083 36.3917 45.674 35.6748 45.6021H35.6455C34.6937 45.5054 33.8029 45.0886 33.1187 44.4199C32.4423 43.757 32.0167 42.88 31.9146 41.9385C31.7681 40.563 31.6948 31.0093 31.6948 28.8823C31.6948 26.7554 31.7695 17.1753 31.9146 15.8013C32.0155 14.8568 32.4411 13.9767 33.1187 13.311C33.8033 12.6429 34.6939 12.2263 35.6455 12.1289H35.6748C36.3917 12.0573 37.1126 12.0353 37.8325 12.063C38.4324 12.0352 39.0336 12.0573 39.6299 12.1289H39.6592C40.6123 12.2279 41.5036 12.6473 42.1875 13.3184C42.8651 13.984 43.2907 14.8641 43.3916 15.8086C43.5381 17.1841 43.6113 26.7627 43.6113 28.8897C43.6113 31.0166 43.5366 40.563 43.3916 41.9385Z" fill="white"/>
</g>
<defs>
<clipPath id="clip0_9309_2097">
<rect width="75" height="75" fill="white"/>
</clipPath>
</defs>
</svg>
