<svg width="80" height="80" viewBox="0 0 80 80" fill="none" xmlns="http://www.w3.org/2000/svg">
<g clip-path="url(#clip0_9596_2654)">
<path d="M0 76.6781V5.04527C0 3.90871 0.921406 2.9873 2.05797 2.9873H45.1252C46.2617 2.9873 47.1831 3.90871 47.1831 5.04527V76.6781C47.1831 77.8147 46.2617 78.7361 45.1252 78.7361H2.05797C0.921406 78.7361 0 77.8147 0 76.6781Z" fill="#4980AC"/>
<path d="M33.6333 9.41295L30.3451 12.9811C29.9555 13.4039 29.4067 13.6445 28.8317 13.6445H18.3515C17.7765 13.6445 17.2278 13.404 16.8381 12.9811L13.55 9.41295C13.1603 8.99014 12.6115 8.74951 12.0365 8.74951H6.79139C6.22311 8.74951 5.76233 9.21014 5.76233 9.77857V71.9445C5.76233 72.5128 6.22311 72.9736 6.79139 72.9736H41.4208V8.74967H35.1465C34.5717 8.74967 34.023 8.99014 33.6333 9.41295Z" fill="#EDF6FF"/>
<path d="M5.76245 66.5146V71.9445C5.76245 72.5128 6.22308 72.9736 6.79151 72.9736H41.4209V67.5437H6.79136C6.22308 67.5436 5.76245 67.0829 5.76245 66.5146Z" fill="#DDEBFD"/>
<path d="M23.6946 9.57258H23.4888C22.8221 9.57258 22.2816 9.03211 22.2816 8.36539C22.2816 7.69867 22.8221 7.1582 23.4888 7.1582H23.6946C24.3613 7.1582 24.9018 7.69867 24.9018 8.36539C24.9018 9.03211 24.3613 9.57258 23.6946 9.57258Z" fill="#62A4FB"/>
<path d="M77.5642 68.3036C66.2042 63.3661 52.3975 64.9228 41.4208 72.9736V8.74955C52.8758 0.347984 67.413 -0.981235 79.0352 4.7622C79.628 5.05517 79.9998 5.6633 79.9998 6.32455V66.702C80 67.9564 78.7148 68.8036 77.5642 68.3036Z" fill="#DDEBFD"/>
<path d="M77.5642 62.8736C66.2042 57.9361 52.3975 59.4928 41.4208 67.5436V72.9734C52.3973 64.9226 66.2041 63.3659 77.5642 68.3034C78.7148 68.8034 80 67.9564 80 66.7019V61.272C80 62.5265 78.7148 63.3737 77.5642 62.8736Z" fill="#BED9FD"/>
<path d="M48.0651 19.0987C47.6107 19.0987 47.1754 18.8409 46.9704 18.4018C46.6884 17.7978 46.9495 17.0793 47.5536 16.7971C55.9046 12.8979 65.1857 12.0804 73.687 14.4954C74.3284 14.6776 74.7006 15.3454 74.5184 15.9867C74.3361 16.6279 73.6682 16.9996 73.0272 16.8181C65.0843 14.5615 56.4007 15.3311 48.5751 18.985C48.4098 19.0621 48.2361 19.0987 48.0651 19.0987Z" fill="#80B6FC"/>
<path d="M48.0651 28.0114C47.6107 28.0114 47.1752 27.7535 46.9704 27.3144C46.6884 26.7102 46.9496 25.9918 47.5537 25.7099C55.906 21.8119 65.1867 20.9955 73.687 23.41C74.3284 23.5922 74.7006 24.26 74.5184 24.9013C74.336 25.5427 73.6682 25.9143 73.0271 25.7327C65.0856 23.4764 56.4017 24.2455 48.5749 27.8977C48.4096 27.9749 48.236 28.0114 48.0651 28.0114Z" fill="#80B6FC"/>
<path d="M48.0651 36.9238C47.6107 36.9238 47.1753 36.6658 46.9704 36.2268C46.6884 35.6225 46.9495 34.9041 47.5537 34.6222C55.9046 30.7246 65.1856 29.9085 73.687 32.324C74.3284 32.5063 74.7006 33.1739 74.5184 33.8152C74.3361 34.4564 73.6682 34.8285 73.0271 34.6466C65.084 32.3894 56.4001 33.1582 48.575 36.81C48.4096 36.8872 48.2361 36.9238 48.0651 36.9238Z" fill="#80B6FC"/>
<path d="M23.5917 53.5929C30.623 53.5929 36.323 47.8929 36.323 40.8616C36.323 33.8303 30.623 28.1304 23.5917 28.1304C16.5604 28.1304 10.8605 33.8303 10.8605 40.8616C10.8605 47.8929 16.5604 53.5929 23.5917 53.5929Z" fill="#F5DE46"/>
<path d="M48.0652 45.8384C47.6108 45.8384 47.1754 45.5805 46.9705 45.1414C46.6885 44.5372 46.9497 43.8188 47.5538 43.5369C51.7208 41.5922 56.1121 40.4083 60.6057 40.0181C61.2671 39.9614 61.8552 40.452 61.9127 41.1164C61.9704 41.7806 61.4787 42.3658 60.8144 42.4234C56.603 42.7892 52.4851 43.9 48.5749 45.7247C48.4097 45.802 48.2362 45.8384 48.0652 45.8384Z" fill="#80B6FC"/>
<path d="M23.3639 35.4368H23.8194C24.4861 35.4368 25.0266 34.8964 25.0266 34.2296C25.0266 33.5628 24.4861 33.0225 23.8194 33.0225H23.3639C22.6972 33.0225 22.1567 33.5629 22.1567 34.2296C22.1567 34.8964 22.6972 35.4368 23.3639 35.4368Z" fill="#365F7E"/>
<path d="M25.3828 46.286H24.7989V38.9381C24.7989 38.2713 24.2585 37.731 23.5918 37.731H22.0097C21.343 37.731 20.8025 38.2714 20.8025 38.9381C20.8025 39.605 21.343 40.1453 22.0097 40.1453H22.3846V46.286H21.8008C21.1341 46.286 20.5936 46.8264 20.5936 47.4931C20.5936 48.1599 21.1341 48.7003 21.8008 48.7003H25.383C26.0497 48.7003 26.5902 48.1599 26.5902 47.4931C26.5902 46.8264 26.0496 46.286 25.3828 46.286Z" fill="#365F7E"/>
<path d="M73.0519 72.7002L66.0259 65.6741C65.7933 65.4414 65.7933 65.0641 66.0259 64.8314L69.7701 61.0872C70.2576 60.5997 69.9123 59.7661 69.223 59.7661H56.2078C55.2342 59.7661 54.4448 60.5555 54.4448 61.5291V74.5441C54.4448 75.2336 55.2784 75.5788 55.7659 75.0913L59.5101 71.3471C59.7428 71.1144 60.1201 71.1144 60.3528 71.3471L67.3787 78.3731C67.8625 78.8569 68.6467 78.8569 69.1303 78.3731L73.0515 74.4519C73.5356 73.968 73.5356 73.1838 73.0519 72.7002Z" fill="#62A4FB"/>
</g>
<defs>
<clipPath id="clip0_9596_2654">
<rect width="80" height="80" fill="white"/>
</clipPath>
</defs>
</svg>
