<svg width="80" height="80" viewBox="0 0 80 80" fill="none" xmlns="http://www.w3.org/2000/svg">
<path d="M48.0922 34.9179L39.7899 47.1784L27.5129 59.394C22.9469 53.5911 17.961 47.9696 14.9211 41.1704L21.5386 31.0331L31.6882 21.2412C28.296 25.4336 28.5493 31.5995 32.4482 35.4984C36.6194 39.6696 43.3807 39.6696 47.5518 35.4984C47.7397 35.3104 47.9213 35.1162 48.0922 34.9179Z" fill="#ECB72B"/>
<path d="M48.2842 34.6882C51.7061 30.4938 51.4633 24.3066 47.5517 20.3972C43.3805 16.226 36.6192 16.226 32.4481 20.3972C32.273 20.5724 32.1061 20.7519 31.9458 20.9355L38.9475 9.55316L48.4467 1.30176C55.5416 3.5477 61.4099 8.54848 64.798 15.0482L57.868 26.2225L48.2842 34.6882Z" fill="#5085F7"/>
<path d="M31.6878 21.2421L14.9203 41.1717C13.2573 37.4556 12.1762 33.3878 12.0647 28.7453C12.0562 28.4813 12.052 28.2154 12.052 27.9495C12.052 21.1185 14.5028 14.8574 18.5748 10.0024L31.6878 21.2421Z" fill="#DA2F2A"/>
<path d="M31.6879 21.242L18.5745 10.0016C23.702 3.88828 31.3963 0 40.0004 0C42.9449 0 45.7831 0.455625 48.4481 1.3L31.6879 21.242Z" fill="#4274EB"/>
<path d="M67.9481 27.9475C67.9481 23.2946 66.8109 18.9071 64.7995 15.0479L27.512 59.3957C31.7484 64.7844 35.6193 70.3308 37.2281 77.1228C37.2796 77.3403 37.3351 77.5946 37.3942 77.8803C37.9774 80.7063 42.0238 80.7063 42.6071 77.8803C42.6662 77.5946 42.7216 77.3403 42.7732 77.1228C47.062 59.0147 67.4305 49.7607 67.9362 28.745C67.9434 28.48 67.9481 28.2143 67.9481 27.9475Z" fill="#60A850"/>
<rect x="43" y="57" width="22" height="22" rx="11" fill="#FF6F70"/>
<rect x="43" y="57" width="22" height="22" rx="11" stroke="white" stroke-width="2"/>
<path d="M59 63.875L58.125 63L54 67.125L49.875 63L49 63.875L53.125 68L49 72.125L49.875 73L54 68.875L58.125 73L59 72.125L54.875 68L59 63.875Z" fill="white"/>
</svg>
