<svg width="60" height="60" viewBox="0 0 60 60" fill="none" xmlns="http://www.w3.org/2000/svg">
<g opacity="0.3">
<path fill-rule="evenodd" clip-rule="evenodd" d="M25.0986 49.5763C18.542 50.2607 13.7902 52.2798 13.7902 54.6615C13.7902 57.6114 21.057 60 30.0188 60C38.984 60 46.2474 57.6114 46.2474 54.6615C46.2474 52.2797 41.492 50.2573 34.925 49.5763H25.0986Z" fill="#6FD7A3"/>
<path fill-rule="evenodd" clip-rule="evenodd" d="M46.2472 54.6615C46.2472 52.444 42.1369 50.5447 36.2802 49.7371C39.0936 50.6987 40.8229 52.0025 40.8229 53.4398C40.8229 56.3863 33.5561 58.7783 24.5943 58.7783C22.3744 58.7783 20.2575 58.6311 18.3327 58.3642C21.2834 59.3737 25.4279 60 30.0186 60C38.9838 60 46.2472 57.6114 46.2472 54.6615Z" fill="#3EC3A4"/>
<path fill-rule="evenodd" clip-rule="evenodd" d="M41.4782 3.26473C38.0781 1.22859 34.0982 0.0821484 30.0015 0C25.9015 0.0821484 21.925 1.22859 18.5215 3.26473C6.04643 10.7352 1.33221 30.1934 26.9686 53.2002C29.3085 55.1748 30.7736 55.4006 33.0346 53.2002C58.6675 30.1934 53.9533 10.7352 41.4782 3.26473Z" fill="#989898"/>
<path fill-rule="evenodd" clip-rule="evenodd" d="M33.0346 53.2002C58.6675 30.1934 53.9533 10.7352 41.4782 3.26472C39.0867 1.83432 36.4106 0.841864 33.6075 0.349091C48.2715 6.283 55.9913 26.9972 28.3033 51.8485C27.7544 52.3825 27.2534 52.7726 26.7764 53.0292C26.8416 53.0873 26.9033 53.1456 26.9686 53.2003C29.3085 55.1748 30.7736 55.4006 33.0346 53.2002Z" fill="#2F2F2F"/>
<path fill-rule="evenodd" clip-rule="evenodd" d="M30.0016 35.3231C37.9649 35.3231 44.4597 28.8451 44.4597 20.9024C44.4597 12.9596 37.9649 6.48152 30.0016 6.48152C22.0382 6.48152 15.5399 12.9596 15.5399 20.9024C15.5399 28.8451 22.0382 35.3231 30.0016 35.3231Z" fill="white"/>
<path fill-rule="evenodd" clip-rule="evenodd" d="M44.4597 20.9023C44.4597 12.939 37.9854 6.4814 30.0015 6.4814C29.3222 6.4814 28.6498 6.52593 27.9979 6.61827C34.7741 7.81253 39.9205 13.7157 39.9205 20.8201C39.9205 28.1058 34.5029 34.1287 27.4661 35.104C28.2895 35.2478 29.1369 35.323 30.0015 35.323C37.9854 35.3231 44.4597 28.869 44.4597 20.9023Z" fill="#D4D4D4"/>
<path d="M31.943 19.9595C31.553 19.8218 31.1954 19.6909 30.8658 19.5652V14.1196C31.86 14.2971 32.4587 14.8089 32.4962 14.8418C32.8723 15.1712 33.4444 15.1334 33.7738 14.7573C34.1033 14.3811 34.0655 13.809 33.6893 13.4796C33.5347 13.3441 32.4979 12.4874 30.8657 12.2884V11.0877C30.8657 10.5877 30.4603 10.1823 29.9603 10.1823C29.4601 10.1823 29.0549 10.5877 29.0549 11.0877V12.3588C28.8551 12.398 28.6507 12.447 28.4412 12.5099C26.9527 12.9563 25.8404 14.2294 25.5386 15.8322C25.2649 17.2855 25.7279 18.6833 26.7467 19.48C27.377 19.9734 28.1797 20.3999 29.0549 20.7834V27.5677C28.0917 27.5229 27.4914 27.3384 26.4634 26.6772C26.0431 26.4067 25.4828 26.5282 25.2121 26.9487C24.9415 27.3693 25.0631 27.9295 25.4837 28.2001C26.8627 29.0872 27.7964 29.3259 29.0549 29.3783V30.7171C29.0549 31.2171 29.4602 31.6225 29.9603 31.6225C30.4604 31.6225 30.8657 31.2171 30.8657 30.7171V29.3132C33.3049 28.9034 34.7274 26.927 35.0367 25.0828C35.4245 22.7707 34.2101 20.7598 31.943 19.9595ZM27.8625 18.0537C27.3789 17.6755 27.1703 16.9527 27.3182 16.1672C27.4561 15.4344 27.9602 14.5445 28.9613 14.2444C28.9928 14.2349 29.0236 14.2272 29.0549 14.2185V18.7861C28.5641 18.539 28.1777 18.3004 27.8625 18.0537ZM33.2508 24.7832C33.0642 25.8958 32.2522 27.0825 30.8658 27.4583V21.4972C31.0239 21.5545 31.1822 21.6113 31.3402 21.667C33.4718 22.4195 33.3416 24.2425 33.2508 24.7832Z" fill="#024C67"/>
</g>
</svg>
