<svg width="20" height="24" viewBox="0 0 20 24" fill="none" xmlns="http://www.w3.org/2000/svg">
<path d="M7.7002 13.0258C8.7479 14.747 11.2422 14.7422 12.2931 13.04L11.3941 12.6919C11.3562 12.6772 11.3213 12.6513 11.2948 12.6165C11.2653 12.5776 11.2477 12.5298 11.2476 12.4786L11.2469 11.58C10.8917 11.8125 10.4677 11.9482 10.0124 11.9482C9.51027 11.9482 9.06965 11.809 8.7103 11.5767V12.4772C8.7103 12.538 8.69132 12.5825 8.66404 12.6162C8.61243 12.6798 8.53073 12.7039 8.48704 12.7208L7.7002 13.0258Z" fill="#FFBD86"/>
<path d="M14.2985 13.8168L12.1568 12.9874C11.1903 14.6316 8.79905 14.6363 7.83591 12.9734L5.68945 13.8056C7.92572 16.2219 11.8533 16.2058 14.2985 13.8168Z" fill="#60B8FE"/>
<path d="M15.3956 23.4903L13.4742 20.0005C13.4137 19.8907 13.2982 19.8225 13.1729 19.8225H6.82733C6.70198 19.8225 6.58653 19.8907 6.52606 20.0005L4.60466 23.4903C4.47847 23.7196 4.64427 24.0001 4.90592 24.0001H15.0943C15.356 24.0001 15.5217 23.7195 15.3956 23.4903Z" fill="#43CB8E"/>
<path d="M6.89769 23.4903L8.81909 20.0005C8.87956 19.8907 8.99502 19.8225 9.12036 19.8225H6.82733C6.70198 19.8225 6.58653 19.8907 6.52606 20.0005L4.60466 23.4903C4.47847 23.7196 4.64427 24.0001 4.90592 24.0001H7.19895C6.9373 24.0001 6.7715 23.7195 6.89769 23.4903Z" fill="#00BA66"/>
<path d="M10.0001 0C5.00257 0 0.963353 3.9997 0.916665 8.99691C0.880337 12.8854 3.28774 16.2158 6.69635 17.5473C7.02382 17.6752 7.30432 17.9001 7.49356 18.1964L9.64732 21.5693C9.8119 21.8269 10.1882 21.8269 10.3528 21.5693L12.5064 18.1965C12.6959 17.8997 12.977 17.6749 13.3049 17.5468C16.6875 16.2249 19.0838 12.9344 19.0838 9.08367C19.0837 4.06692 15.0168 4.6875e-05 10.0001 0ZM14.521 13.6047C12.0241 16.1016 7.97585 16.1016 5.47896 13.6047C2.98207 11.1078 2.98207 7.05961 5.47896 4.56272C7.97585 2.06583 12.0241 2.06583 14.521 4.56272C17.0179 7.05961 17.0179 11.1079 14.521 13.6047Z" fill="#EBCC9D"/>
<path d="M12.723 8.05859C12.6476 8.12263 12.5503 8.16158 12.4441 8.16158C12.3857 8.16158 12.2805 8.15534 12.2255 8.14362V9.83164C12.2255 9.85264 12.2244 9.87336 12.2239 9.89422C12.789 9.93959 13.3365 9.5232 13.3365 9.01587C13.3364 8.62958 13.0876 8.18258 12.723 8.05859Z" fill="#FFBD86"/>
<path d="M7.73379 9.83174V8.16163H7.4029C7.31393 8.16163 7.22918 8.14396 7.15146 8.11255C6.85033 8.26428 6.6228 8.66638 6.6228 9.01592C6.6228 9.5226 7.16932 9.93974 7.73533 9.89422C7.73472 9.87341 7.73379 9.85264 7.73379 9.83174Z" fill="#FFBD86"/>
<path d="M11.6193 7.38535C11.6193 7.34115 11.5602 7.32592 11.5393 7.36492C11.2704 7.86779 10.7406 8.21007 10.1304 8.21007H7.6853V9.83185C7.6853 11.0138 8.61136 12.0932 10.0122 12.0932C11.2591 12.0932 12.2736 11.0788 12.2736 9.83185V8.19212C11.9011 8.11309 11.6193 7.7806 11.6193 7.38535Z" fill="#FED2A4"/>
<path d="M12.1267 5.23329C11.9107 5.24988 11.7124 5.11404 11.6708 4.90137C11.6008 4.5432 11.4234 4.18774 10.7307 4.18774H8.32735C7.4453 4.18774 6.73022 4.90278 6.73022 5.78487V7.58595C6.73022 7.95734 7.0313 8.25842 7.40269 8.25842H10.1304C10.7406 8.25842 11.2704 7.91614 11.5393 7.41326C11.5602 7.37426 11.6193 7.38949 11.6193 7.4337C11.6193 7.88731 11.9904 8.25842 12.4441 8.25842C12.6818 8.25842 12.8763 8.06388 12.8763 7.82613V5.94874C12.8763 5.51778 12.5004 5.20456 12.1267 5.23329Z" fill="#665E68"/>
<path d="M8.15222 7.58595V5.78487C8.15222 4.90282 8.86726 4.18774 9.74935 4.18774H8.32735C7.4453 4.18774 6.73022 4.90278 6.73022 5.78487V7.58595C6.73022 7.95734 7.0313 8.25842 7.40269 8.25842H8.82469C8.4533 8.25842 8.15222 7.95734 8.15222 7.58595Z" fill="#544E55"/>
</svg>
