<svg width="20" height="20" viewBox="0 0 20 20" fill="none" xmlns="http://www.w3.org/2000/svg">
<g id="fi_2819345" clip-path="url(#clip0_9823_835)">
<g id="Group 1597886208">
<path id="Vector" d="M16.8056 12.0139H12.6389C12.1787 12.0144 11.7374 12.1975 11.4119 12.523C11.0865 12.8484 10.9034 13.2897 10.9028 13.75V17.9166C10.9034 18.3769 11.0865 18.8182 11.4119 19.1436C11.7374 19.4691 12.1787 19.6522 12.6389 19.6527H16.8056C17.2659 19.6522 17.7072 19.4691 18.0326 19.1436C18.3581 18.8182 18.5412 18.3769 18.5417 17.9166V13.75C18.5412 13.2897 18.3581 12.8484 18.0326 12.523C17.7072 12.1975 17.2659 12.0144 16.8056 12.0139ZM15.1289 15.6347H15.0049V17.0191C15.0412 17.0191 15.077 17.0264 15.1104 17.0404C15.1438 17.0544 15.1741 17.075 15.1995 17.1008C15.2249 17.1267 15.2449 17.1573 15.2584 17.191C15.2718 17.2246 15.2784 17.2606 15.2778 17.2968C15.2783 17.3328 15.2716 17.3685 15.258 17.4018C15.2444 17.4351 15.2244 17.4653 15.1989 17.4907C15.1735 17.5162 15.1432 17.5362 15.1099 17.5497C15.0766 17.5632 15.0409 17.5699 15.0049 17.5694C14.8591 17.5689 14.7195 17.5107 14.6164 17.4076C14.5133 17.3045 14.4551 17.1649 14.4546 17.0191V15.6347H14.3105C14.2746 15.6348 14.2391 15.6279 14.206 15.6142C14.1729 15.6006 14.1428 15.5805 14.1174 15.5552C14.0921 15.5298 14.072 15.4997 14.0584 15.4666C14.0447 15.4335 14.0378 15.398 14.0379 15.3621C14.0373 15.3262 14.044 15.2904 14.0575 15.2571C14.071 15.2238 14.091 15.1935 14.1165 15.168C14.1419 15.1426 14.1721 15.1225 14.2055 15.1089C14.2388 15.0954 14.2745 15.0887 14.3105 15.0892H14.4546V14.3701C14.4546 14.3339 14.4618 14.298 14.4758 14.2645C14.4898 14.2311 14.5104 14.2008 14.5362 14.1754C14.5621 14.15 14.5927 14.13 14.6264 14.1166C14.6601 14.1031 14.6961 14.0965 14.7323 14.0972C14.7683 14.0967 14.804 14.1034 14.8374 14.1169C14.8707 14.1304 14.901 14.1505 14.9265 14.176C14.9519 14.2014 14.972 14.2317 14.9855 14.2651C14.9991 14.2984 15.0058 14.3341 15.0053 14.3701V15.0892H15.1292C15.2021 15.0892 15.272 15.1178 15.3239 15.1688C15.3759 15.2199 15.4057 15.2893 15.407 15.3621C15.4056 15.4349 15.3757 15.5043 15.3237 15.5553C15.2717 15.6063 15.2017 15.6348 15.1289 15.6347Z" fill="#4C4ECA"/>
<path id="Vector_2" d="M16.8056 2.98608H12.6389C12.1787 2.98664 11.7374 3.16972 11.4119 3.49519C11.0865 3.82065 10.9034 4.26192 10.9028 4.7222V8.88886C10.9034 9.34914 11.0865 9.7904 11.4119 10.1159C11.7374 10.4413 12.1787 10.6244 12.6389 10.625H16.8056C17.2659 10.6244 17.7072 10.4413 18.0326 10.1159C18.3581 9.7904 18.5412 9.34914 18.5417 8.88886V4.7222C18.5412 4.26192 18.3581 3.82065 18.0326 3.49519C17.7072 3.16972 17.2659 2.98664 16.8056 2.98608ZM15.1091 5.9722C15.1449 5.9721 15.1805 5.9791 15.2136 5.99278C15.2468 6.00647 15.2769 6.02657 15.3023 6.05193C15.3276 6.07729 15.3477 6.10741 15.3614 6.14056C15.3751 6.17372 15.3821 6.20925 15.382 6.24511C15.3813 6.31724 15.3523 6.3862 15.3012 6.43717C15.2502 6.48814 15.1812 6.51705 15.1091 6.51768H14.9605V8.26872C14.9605 8.34111 14.9317 8.41052 14.8805 8.4617C14.8294 8.51289 14.7599 8.54164 14.6876 8.54164C14.6152 8.54164 14.5458 8.51289 14.4946 8.4617C14.4434 8.41052 14.4146 8.34111 14.4146 8.26872V6.51768H14.2858C14.213 6.51769 14.1432 6.48914 14.0912 6.43817C14.0393 6.3872 14.0094 6.31788 14.008 6.24511C14.0081 6.20887 14.0153 6.173 14.0294 6.13959C14.0434 6.10618 14.0639 6.0759 14.0898 6.0505C14.1156 6.0251 14.1463 6.0051 14.1799 5.99165C14.2136 5.97821 14.2496 5.9716 14.2858 5.9722H14.4146V5.90275C14.4059 5.73547 14.4383 5.5686 14.5087 5.41664C14.544 5.34356 14.5939 5.27853 14.6553 5.2256C14.7168 5.17267 14.7885 5.13298 14.866 5.109C14.9627 5.08106 15.063 5.06772 15.1636 5.06942C15.2349 5.07195 15.3024 5.10205 15.3519 5.15338C15.4015 5.20471 15.4292 5.27326 15.4292 5.34459C15.4292 5.41592 15.4015 5.48447 15.3519 5.5358C15.3024 5.58713 15.2349 5.61723 15.1636 5.61976C15.1201 5.61685 15.0764 5.62191 15.0348 5.6347C15.0234 5.63617 15.0128 5.64157 15.0049 5.64997C14.9656 5.72805 14.9502 5.81596 14.9605 5.90275V5.9722H15.1091Z" fill="#7C6EF7"/>
<path id="Vector_3" d="M7.77778 12.0139H3.61111C3.15084 12.0144 2.70957 12.1975 2.3841 12.523C2.05864 12.8484 1.87555 13.2897 1.875 13.75V17.9166C1.87555 18.3769 2.05864 18.8182 2.3841 19.1436C2.70957 19.4691 3.15084 19.6522 3.61111 19.6527H7.77778C8.23805 19.6522 8.67932 19.4691 9.00478 19.1436C9.33025 18.8182 9.51334 18.3769 9.51389 17.9166V13.75C9.51334 13.2897 9.33025 12.8484 9.00478 12.523C8.67932 12.1975 8.23805 12.0144 7.77778 12.0139ZM7.23854 16.1458L4.46076 17.5347C4.40768 17.5612 4.34869 17.5737 4.28941 17.5709C4.23013 17.5682 4.17255 17.5503 4.12216 17.5189C4.07178 17.4876 4.03026 17.4439 4.00158 17.3919C3.9729 17.34 3.95801 17.2815 3.95833 17.2222V14.4444C3.95801 14.3851 3.9729 14.3266 4.00158 14.2747C4.03026 14.2227 4.07178 14.179 4.12216 14.1477C4.17255 14.1163 4.23013 14.0984 4.28941 14.0957C4.34869 14.0929 4.40768 14.1054 4.46076 14.1319L7.23854 15.5208C7.29725 15.5492 7.34676 15.5936 7.3814 15.6489C7.41604 15.7042 7.43441 15.7681 7.43441 15.8333C7.43441 15.8985 7.41604 15.9624 7.3814 16.0177C7.34676 16.073 7.29725 16.1174 7.23854 16.1458Z" fill="#DD6F2B"/>
<g id="Group">
<path id="Vector_4" d="M6.08691 0.180745L3.55059 4.01136L1.10742 5.70248C0.987127 5.78605 0.898828 5.90804 0.85702 6.04841C0.815211 6.18879 0.822376 6.33921 0.87734 6.47497L0.469522 7.21869C0.450298 7.25372 0.441206 7.29341 0.443263 7.33331C0.445319 7.37321 0.458444 7.41176 0.481167 7.44462L1.46103 8.86024C1.48378 8.89313 1.51524 8.91904 1.55189 8.93505C1.58853 8.95106 1.62892 8.95654 1.66851 8.95088L2.50808 8.83091C2.61579 8.93017 2.75405 8.98984 2.90016 9.00015C3.04627 9.01045 3.19153 8.97077 3.31211 8.88762L3.53012 8.73672L5.69729 10.5797C5.80567 10.6719 5.94145 10.7257 6.08354 10.7327C6.22563 10.7398 6.36607 10.6997 6.48304 10.6187L7.16661 10.1456C7.24803 10.0893 7.31541 10.015 7.36354 9.92852C7.41167 9.84202 7.43928 9.74561 7.44421 9.64674C7.44914 9.54788 7.43127 9.4492 7.39199 9.35834C7.3527 9.26748 7.29305 9.18688 7.21764 9.12275L5.31167 7.50356L5.75405 7.19735L10.2339 6.17198C10.2683 6.16415 10.3002 6.14802 10.3268 6.12499C10.3534 6.10196 10.374 6.07275 10.3867 6.03992C10.3995 6.00708 10.4039 5.97163 10.3998 5.93666C10.3956 5.9017 10.3829 5.86829 10.3628 5.83937L6.44335 0.17691C6.42333 0.147991 6.39652 0.124422 6.36527 0.108267C6.33402 0.0921107 6.29929 0.0838609 6.26411 0.0842394C6.22894 0.084618 6.19439 0.0936126 6.1635 0.110437C6.13261 0.127261 6.10631 0.151402 6.08691 0.180745ZM2.21575 8.43808L1.73936 8.50609L0.910888 7.30919L1.14231 6.88727L2.21575 8.43808ZM6.93809 9.4513C6.96315 9.47264 6.98298 9.49945 6.99605 9.52965C7.00913 9.55986 7.0151 9.59266 7.01351 9.62554C7.01192 9.65841 7.00282 9.69049 6.98689 9.71929C6.97096 9.74809 6.94864 9.77286 6.92164 9.79168L6.23861 10.2645C6.19963 10.2915 6.15281 10.3049 6.10542 10.3026C6.05804 10.3002 6.01276 10.2823 5.97661 10.2516L3.89605 8.48342L4.94538 7.7571L6.93809 9.4513ZM5.36752 6.94143L3.06714 8.53371C3.02021 8.5662 2.9623 8.57871 2.90615 8.56849C2.84999 8.55828 2.80019 8.52617 2.76771 8.47924L2.64523 8.30229L3.88389 7.44491C3.93082 7.41242 3.96292 7.36263 3.97314 7.30647C3.98335 7.25032 3.97084 7.1924 3.93836 7.14547C3.90587 7.09854 3.85608 7.06644 3.79992 7.05622C3.74377 7.04601 3.68585 7.05852 3.63892 7.09101L2.40026 7.94839L2.15529 7.59448L3.39396 6.7371C3.44089 6.70462 3.47299 6.65482 3.48321 6.59867C3.49342 6.54251 3.48091 6.4846 3.44843 6.43767C3.41594 6.39074 3.36615 6.35863 3.30999 6.34842C3.25384 6.3382 3.19592 6.35071 3.14899 6.3832L1.91033 7.24058L1.66536 6.88668L2.90403 6.02929C2.95096 5.99681 2.98306 5.94701 2.99328 5.89086C3.00349 5.8347 2.99098 5.77679 2.95849 5.72986C2.92601 5.68293 2.87621 5.65082 2.82006 5.64061C2.7639 5.63039 2.70599 5.64291 2.65906 5.67539L1.4204 6.53277L1.29791 6.35582C1.26543 6.30889 1.25292 6.25098 1.26313 6.19482C1.27335 6.13867 1.30545 6.08887 1.35238 6.05638L3.65276 4.4641L5.36752 6.94143ZM9.828 5.82298L5.76099 6.75362L3.96722 4.16216L6.27048 0.683411L9.828 5.82298Z" fill="#151A6A"/>
</g>
</g>
</g>
<defs>
<clipPath id="clip0_9823_835">
<rect width="20" height="20" fill="white"/>
</clipPath>
</defs>
</svg>
