<svg width="16" height="17" viewBox="0 0 16 17" fill="none" xmlns="http://www.w3.org/2000/svg">
<g clip-path="url(#clip0_9810_1780)">
<path d="M10.5 1.5H9.414C9.208 0.918 8.652 0.5 8 0.5C7.348 0.5 6.792 0.918 6.585 1.5H5.5C5.224 1.5 5 1.724 5 2V4C5 4.276 5.224 4.5 5.5 4.5H10.5C10.776 4.5 11 4.276 11 4V2C11 1.724 10.776 1.5 10.5 1.5Z" fill="white"/>
<path d="M13 2.5H12V4C12 4.827 11.327 5.5 10.5 5.5H5.5C4.673 5.5 4 4.827 4 4V2.5H3C2.449 2.5 2 2.949 2 3.5V15.5C2 16.061 2.439 16.5 3 16.5H13C13.561 16.5 14 16.061 14 15.5V3.5C14 2.939 13.561 2.5 13 2.5ZM7.854 11.354L5.854 13.354C5.756 13.451 5.628 13.5 5.5 13.5C5.372 13.5 5.244 13.451 5.146 13.354L4.146 12.354C3.951 12.159 3.951 11.842 4.146 11.647C4.341 11.452 4.658 11.452 4.853 11.647L5.5 12.293L7.146 10.647C7.341 10.452 7.658 10.452 7.853 10.647C8.048 10.842 8.049 11.158 7.854 11.354ZM7.854 7.354L5.854 9.354C5.756 9.451 5.628 9.5 5.5 9.5C5.372 9.5 5.244 9.451 5.146 9.354L4.146 8.354C3.951 8.159 3.951 7.842 4.146 7.647C4.341 7.452 4.658 7.452 4.853 7.647L5.5 8.293L7.146 6.647C7.341 6.452 7.658 6.452 7.853 6.647C8.048 6.842 8.049 7.158 7.854 7.354ZM11.5 12.5H9.5C9.224 12.5 9 12.276 9 12C9 11.724 9.224 11.5 9.5 11.5H11.5C11.776 11.5 12 11.724 12 12C12 12.276 11.776 12.5 11.5 12.5ZM11.5 8.5H9.5C9.224 8.5 9 8.276 9 8C9 7.724 9.224 7.5 9.5 7.5H11.5C11.776 7.5 12 7.724 12 8C12 8.276 11.776 8.5 11.5 8.5Z" fill="white"/>
</g>
<defs>
<clipPath id="clip0_9810_1780">
<rect width="16" height="16" fill="white" transform="translate(0 0.5)"/>
</clipPath>
</defs>
</svg>
