<svg width="18" height="18" viewBox="0 0 18 18" fill="none" xmlns="http://www.w3.org/2000/svg">
<g clip-path="url(#clip0_9810_1797)">
<path fill-rule="evenodd" clip-rule="evenodd" d="M12.5817 1.52039C15.0275 1.52039 17.0102 3.50302 17.0102 5.94884C17.0102 8.39452 15.0275 10.3772 12.5817 10.3772C10.136 10.3772 8.15335 8.39456 8.15335 5.94884C8.15335 3.50302 10.136 1.52039 12.5817 1.52039ZM10.6733 13.2554C11.0672 12.5795 10.8356 11.7014 10.1596 11.3076L5.86271 8.80406C5.26931 8.55782 4.67091 8.55716 4.07716 8.80248L2.73359 9.35749V14.6252C3.40356 14.4359 4.03912 14.4794 4.73096 14.846L7.22273 16.166C7.79011 16.4666 8.37265 16.5653 8.99299 16.399L16.6592 14.345C17.3433 14.1617 17.7529 13.4521 17.5696 12.7679C17.3864 12.0839 16.6767 11.6741 15.9927 11.8574L11.435 13.0786C11.3974 13.1989 11.346 13.3168 11.28 13.43C10.8031 14.2485 9.74364 14.5293 8.92482 14.0522L6.6295 12.7149C6.48701 12.6324 6.43839 12.45 6.52094 12.3076C6.60349 12.1651 6.78584 12.1165 6.92833 12.199L9.22358 13.5363C9.66204 13.7918 10.4075 13.7118 10.6733 13.2554ZM2.13593 8.91234V15.3078C2.13593 15.4638 2.00835 15.5914 1.85243 15.5914H0.670341C0.514388 15.5914 0.386841 15.4638 0.386841 15.3078V8.91234C0.386841 8.75628 0.514423 8.6287 0.670341 8.6287H1.8524C2.00835 8.62866 2.13593 8.75625 2.13593 8.91234ZM12.5817 2.55901C10.7097 2.55901 9.19197 4.07677 9.19197 5.94884C9.19197 7.82084 10.7097 9.33854 12.5817 9.33854C14.4538 9.33854 15.9715 7.82084 15.9715 5.94884C15.9715 4.07677 14.4538 2.55901 12.5817 2.55901ZM12.2829 4.11165V4.39044C11.8648 4.49453 11.5673 4.8726 11.5673 5.3052C11.5673 5.82411 11.9909 6.24764 12.5098 6.24764H12.6537C12.8427 6.24764 12.9985 6.40345 12.9985 6.59241C12.9985 6.78152 12.8427 6.93726 12.6537 6.93726H12.4511C12.3366 6.93726 12.2378 6.88562 12.1709 6.79305C12.0742 6.65956 11.8876 6.62975 11.7541 6.72643C11.6207 6.82318 11.591 7.00975 11.6876 7.14321C11.8291 7.33889 12.0457 7.47533 12.2829 7.51934V7.7859C12.2829 7.95096 12.4167 8.08473 12.5817 8.08473C12.7467 8.08473 12.8806 7.95096 12.8806 7.7859V7.50711C13.2987 7.40308 13.5961 7.02494 13.5961 6.59234C13.5961 6.07344 13.1726 5.64998 12.6537 5.64998H12.5098C12.3207 5.64998 12.165 5.4941 12.165 5.30513C12.165 5.1161 12.3207 4.96028 12.5098 4.96028H12.7124C12.827 4.96028 12.9257 5.01193 12.9926 5.10457C13.0894 5.23798 13.2759 5.2678 13.4094 5.17112C13.5429 5.07444 13.5726 4.88779 13.4759 4.75437C13.3344 4.55869 13.1178 4.42225 12.8806 4.37817V4.11161C12.8806 3.94655 12.7468 3.81278 12.5818 3.81278C12.4168 3.81278 12.2829 3.94659 12.2829 4.11165ZM12.5817 3.15666C11.0397 3.15666 9.78963 4.40671 9.78963 5.94884C9.78963 7.4909 11.0397 8.74088 12.5817 8.74088C14.1239 8.74088 15.3738 7.4909 15.3738 5.94884C15.3738 4.40671 14.1239 3.15666 12.5817 3.15666Z" fill="white"/>
</g>
<defs>
<clipPath id="clip0_9810_1797">
<rect width="18" height="18" fill="white"/>
</clipPath>
</defs>
</svg>
