<svg width="16" height="17" viewBox="0 0 16 17" fill="none" xmlns="http://www.w3.org/2000/svg">
<rect width="16" height="17" fill="#F5F5F5"/>
<g clip-path="url(#clip0_9810_3)">
<rect width="1440" height="916" transform="translate(-833 -170)" fill="#FCFCFC"/>
<g filter="url(#filter0_d_9810_3)">
<rect x="-553" y="-46" width="1140" height="186" rx="10" fill="white"/>
</g>
<rect x="-158.5" y="6.5" width="349" height="44" rx="4.5" fill="white"/>
<rect x="-158.5" y="6.5" width="349" height="44" rx="4.5" stroke="#D0DBE9"/>
<rect x="-832" y="-263" width="1438" height="1009" fill="black" fill-opacity="0.6"/>
<rect x="-683" y="-70" width="1140" height="700" rx="10" fill="white"/>
<rect x="-117" y="-16" width="150" height="88" rx="5" fill="#BF83FF" fill-opacity="0.07"/>
<circle cx="8" cy="8.5" r="15" fill="#BF83FF"/>
<g clip-path="url(#clip1_9810_3)">
<path d="M13.3334 0.5C11.863 0.5 10.6667 1.69628 10.6667 3.16666C10.6667 4.44209 12.5564 7.0235 12.9992 7.61103C12.999 7.80081 12.9992 7.98716 12.9946 8.15819C12.9897 8.34209 13.1349 8.49544 13.3191 8.50031C13.322 8.50031 13.325 8.50031 13.3282 8.50031C13.5079 8.50031 13.6563 8.35675 13.6612 8.17578C13.6658 8.00028 13.6657 7.80872 13.6658 7.61353C14.1056 7.03003 16.0001 4.44359 16.0001 3.16666C16.0001 1.69628 14.8038 0.5 13.3334 0.5ZM13.3334 3.83334C12.9659 3.83334 12.6667 3.53419 12.6667 3.16669C12.6667 2.79919 12.9659 2.50003 13.3334 2.50003C13.7009 2.50003 14.0001 2.79916 14.0001 3.16666C14.0001 3.53419 13.7009 3.83334 13.3334 3.83334Z" fill="white"/>
<path d="M10.2031 10.1071C9.653 10.4193 9.34735 10.9613 9.16503 11.3415C9.08528 11.5075 9.15525 11.7067 9.32128 11.7861C9.36785 11.8086 9.417 11.819 9.46516 11.819C9.5895 11.819 9.70866 11.7493 9.76594 11.6299C9.99738 11.1471 10.2337 10.8564 10.5325 10.6865C10.6924 10.5957 10.7487 10.3922 10.6575 10.2321C10.5671 10.0719 10.3643 10.0156 10.2031 10.1071Z" fill="white"/>
<path d="M7.16958 14.9463C6.83558 15.211 6.45605 15.4102 6.00877 15.5557C5.83365 15.6127 5.73793 15.8008 5.79489 15.9759C5.8408 16.1166 5.97133 16.2061 6.11196 16.2061C6.14614 16.2061 6.18096 16.2009 6.21514 16.1898C6.73174 16.0218 7.19202 15.7793 7.58364 15.4691C7.72786 15.3545 7.75227 15.1449 7.63802 15.0007C7.52277 14.8568 7.31346 14.8311 7.16958 14.9463Z" fill="white"/>
<path d="M9.04915 12.5137C8.87662 12.4466 8.68456 12.5323 8.61784 12.7041C8.46843 13.0902 8.28159 13.5404 8.02962 13.9528C7.93359 14.11 7.9834 14.3151 8.14031 14.4112C8.19468 14.4444 8.25456 14.46 8.31381 14.46C8.42612 14.46 8.53581 14.4034 8.59865 14.3005C8.87796 13.8428 9.07943 13.3584 9.23959 12.945C9.30599 12.7734 9.22071 12.5804 9.04915 12.5137Z" fill="white"/>
<path d="M13.2096 9.28186C13.0583 9.17933 12.8503 9.2187 12.7467 9.37105C12.637 9.53317 12.4124 9.75614 11.733 9.81702C11.5498 9.83361 11.4143 9.99539 11.4309 10.179C11.4466 10.3522 11.5921 10.4824 11.7627 10.4824C11.7728 10.4824 11.7828 10.482 11.7929 10.481C12.5146 10.4163 13.0071 10.1754 13.2988 9.7447C13.402 9.59239 13.362 9.38505 13.2096 9.28186Z" fill="white"/>
<path d="M4.78984 15.8377C5.84162 14.7161 8 12.1357 8 9.83337C8 7.59053 6.24284 5.83337 4 5.83337C1.75716 5.83337 0 7.59053 0 9.83337C0 12.7901 3.56463 16.2129 3.76384 16.4018C3.76384 16.4018 3.76466 16.4026 3.76503 16.403C3.76613 16.404 3.77031 16.4081 3.77119 16.4089C3.78497 16.422 3.80216 16.4281 3.81744 16.4383C3.83634 16.4511 3.85344 16.4661 3.87484 16.4748C3.915 16.4911 3.95731 16.5 4 16.5C4.24284 16.5 4.47363 16.4916 4.69238 16.475C4.87597 16.461 5.01366 16.3011 4.99966 16.1175C4.98966 15.9862 4.90462 15.8837 4.78984 15.8377ZM4 11.8334C2.89713 11.8334 2 10.9362 2 9.83337C2 8.7305 2.89713 7.83337 4 7.83337C5.10287 7.83337 6 8.7305 6 9.83337C6 10.9362 5.10287 11.8334 4 11.8334Z" fill="white"/>
</g>
</g>
<defs>
<filter id="filter0_d_9810_3" x="-562" y="-49" width="1158" height="204" filterUnits="userSpaceOnUse" color-interpolation-filters="sRGB">
<feFlood flood-opacity="0" result="BackgroundImageFix"/>
<feColorMatrix in="SourceAlpha" type="matrix" values="0 0 0 0 0 0 0 0 0 0 0 0 0 0 0 0 0 0 127 0" result="hardAlpha"/>
<feMorphology radius="3" operator="erode" in="SourceAlpha" result="effect1_dropShadow_9810_3"/>
<feOffset dy="6"/>
<feGaussianBlur stdDeviation="6"/>
<feComposite in2="hardAlpha" operator="out"/>
<feColorMatrix type="matrix" values="0 0 0 0 0.2 0 0 0 0 0.258824 0 0 0 0 0.341176 0 0 0 0.05 0"/>
<feBlend mode="normal" in2="BackgroundImageFix" result="effect1_dropShadow_9810_3"/>
<feBlend mode="normal" in="SourceGraphic" in2="effect1_dropShadow_9810_3" result="shape"/>
</filter>
<clipPath id="clip0_9810_3">
<rect width="1440" height="916" fill="white" transform="translate(-833 -170)"/>
</clipPath>
<clipPath id="clip1_9810_3">
<rect width="16" height="16" fill="white" transform="translate(0 0.5)"/>
</clipPath>
</defs>
</svg>
