<svg width="16" height="17" viewBox="0 0 16 17" fill="none" xmlns="http://www.w3.org/2000/svg">
<path d="M10 7.33333C7.88602 7.33333 6.16669 9.05333 6.16669 11.1667C6.16669 13.28 7.88602 15 10 15C12.114 15 13.8334 13.28 13.8334 11.1667C13.8334 9.05333 12.114 7.33333 10 7.33333ZM11.3034 11.6667H10C9.72402 11.6667 9.50002 11.4427 9.50002 11.1667V9.81C9.50002 9.534 9.72402 9.31 10 9.31C10.276 9.31 10.5 9.534 10.5 9.81V10.6667H11.3034C11.5794 10.6667 11.8034 10.8907 11.8034 11.1667C11.8034 11.4427 11.5794 11.6667 11.3034 11.6667ZM10.6667 2H4.00002C2.98669 2 2.16669 2.82 2.16669 3.83333V12.5C2.16669 13.5133 2.98669 14.3333 4.00002 14.3333H6.36002C5.61335 13.4867 5.16669 12.38 5.16669 11.1667C5.16669 8.5 7.33335 6.33333 10 6.33333C10.92 6.33333 11.7734 6.58667 12.5 7.04V3.83333C12.5 2.82 11.68 2 10.6667 2ZM5.33335 9H4.66669C4.39335 9 4.16669 8.77333 4.16669 8.5C4.16669 8.22667 4.39335 8 4.66669 8H5.33335C5.60669 8 5.83335 8.22667 5.83335 8.5C5.83335 8.77333 5.60669 9 5.33335 9ZM7.33335 7H4.66669C4.39335 7 4.16669 6.77333 4.16669 6.5C4.16669 6.22667 4.39335 6 4.66669 6H7.33335C7.60669 6 7.83335 6.22667 7.83335 6.5C7.83335 6.77333 7.60669 7 7.33335 7ZM10 5H4.66669C4.39335 5 4.16669 4.77333 4.16669 4.5C4.16669 4.22667 4.39335 4 4.66669 4H10C10.2734 4 10.5 4.22667 10.5 4.5C10.5 4.77333 10.2734 5 10 5Z" fill="white"/>
</svg>
